<svg id="Layer_2" data-name="Layer 2" xmlns="http://www.w3.org/2000/svg" viewBox="0 0 167.31 167.31" width="auto" height="auto">
  <defs>
    <style>
      .cls-1 {
        fill: currentColor;
      }
    </style>
  </defs>
  <g id="Layer_4" data-name="Layer 4">
    <rect class="cls-1" x="73.82" y="20.92" width="20.93" height="20.93"/>
    <rect class="cls-1" x="156.85" y="156.85" width="10.47" height="10.47"/>
    <rect class="cls-1" y=".24" width="10.47" height="10.47"/>
    <rect class="cls-1" y="156.85" width="10.47" height="10.47"/>
    <rect class="cls-1" x="156.85" y="0" width="10.47" height="10.47"/>
    <rect class="cls-1" x="20.68" y="83.76" width="20.93" height="20.93"/>
    <rect class="cls-1" x="20.68" y="124.91" width="20.93" height="20.93"/>
    <rect class="cls-1" x="125.43" y="124.91" width="20.93" height="20.93"/>
    <rect class="cls-1" x="125.45" y="20.92" width="20.93" height="20.93"/>
    <rect class="cls-1" x="125.43" y="83.76" width="20.93" height="20.93"/>
    <rect class="cls-1" x="125.43" y="62.79" width="20.93" height="20.93"/>
    <rect class="cls-1" x="20.68" y="62.79" width="20.93" height="20.93"/>
    <rect class="cls-1" x="20.68" y="20.92" width="20.93" height="20.93"/>
    <rect class="cls-1" x="73.08" y="125.7" width="20.93" height="20.93"/>
    <path class="cls-1" d="m41.67,41.86v83.82h83.76V41.86H41.67Zm62.75,62.8h-41.87v-41.87h41.87v41.87Z"/>
  </g>
</svg>