<svg id="Layer_2" data-name="Layer 2" xmlns="http://www.w3.org/2000/svg" viewBox="0 0 156.43 143.25" width="auto" height="auto">
  <defs>
    <style>
      .cls-1 {
        fill: currentColor;
      }
    </style>
  </defs>
  <g id="Layer_4" data-name="Layer 4">
    <path class="cls-1" d="m152.55,15.22c-3.94-2.56-9.21-1.44-11.77,2.5l-14.76,22.73-37.55-24.39,5.07-7.81c1.61-2.48.9-5.79-1.57-7.4s-5.79-.9-7.4,1.57l-9.03,13.9c-4.91,7.57-7.33,16.53-6.98,25.93.11,2.88,2.48,5.15,5.34,5.15.07,0,.13,0,.2,0,2.95-.11,5.26-2.59,5.15-5.54-.07-1.76,0-3.51.18-5.21l21.05,13.67c.59.38,1.25.56,1.9.56,1.15,0,2.27-.56,2.94-1.59,1.05-1.62.59-3.79-1.03-4.84l-22.28-14.47c-.32-.21-.67-.34-1.02-.44.87-2.6,2.04-5.08,3.53-7.38l.15-.23,37.09,24.09c-6.62,7.02-16.35,11.29-28.03,12.16l-23.71,1.77c-25.03,1.87-46.23,13.46-58.15,31.82L1.37,107.93c-2.56,3.94-1.44,9.21,2.5,11.77,1.43.93,3.04,1.37,4.63,1.37,2.79,0,5.51-1.37,7.14-3.88l10.49-16.15c1.52-2.34,3.24-4.51,5.13-6.53l47.26,30.69c-1.21,3.48-2.72,6.85-4.53,10.06-1.46,2.57-.55,5.83,2.02,7.29.83.47,1.74.69,2.63.69,1.86,0,3.68-.98,4.66-2.72,7.95-14.06,10.98-30.43,8.75-47.36-.39-2.93-3.07-4.99-6-4.6-2.93.39-4.99,3.07-4.6,6,.29,2.21.47,4.4.55,6.58l-23.55-15.29c-1.62-1.05-3.79-.59-4.84,1.03s-.59,3.79,1.03,4.84l26.66,17.32c.17.11.35.2.54.28-.24,3-.67,5.95-1.31,8.84l-43.98-28.56c9.06-7.24,20.95-11.64,34.73-12.67l23.71-1.77c19.23-1.43,35.53-10.38,44.73-24.55l15.34-23.62c2.56-3.94,1.44-9.21-2.5-11.77Z"/>
  </g>
</svg>