
<svg id="Layer_2" data-name="Layer 2" xmlns="http://www.w3.org/2000/svg" viewBox="0 0 160.69 155.32" width="auto" height="auto">
  <defs>
    <style>
      .cls-1 {
        fill: currentColor;
      }
    </style>
  </defs>
  <g id="Layer_4" data-name="Layer 4">
    <g>
      <path class="cls-1" d="m85.96,83.38c-2.13.28-3.63,2.23-3.35,4.36,1.79,13.56-.26,26.83-5.92,38.37-.94,1.93-.15,4.26,1.78,5.2.55.27,1.13.4,1.71.4,1.44,0,2.82-.8,3.49-2.18,6.34-12.92,8.63-27.72,6.65-42.81-.28-2.13-2.23-3.63-4.36-3.35Z"/>
      <path class="cls-1" d="m74.58,27.41c-2.1-.44-4.16.9-4.6,3-.67,3.17-.56,5.48-.43,8.16.02.5.05,1.03.07,1.6.08,2.1,1.8,3.74,3.88,3.74.05,0,.1,0,.15,0,2.15-.08,3.82-1.88,3.74-4.03-.02-.59-.05-1.15-.07-1.68-.11-2.41-.19-4,.27-6.19.44-2.1-.9-4.16-3-4.61Z"/>
      <path class="cls-1" d="m136.94,32.2c-3.94-2.56-9.21-1.44-11.77,2.5-6.37,9.82-17.64,15.8-31.73,16.85l-23.71,1.77c-25.03,1.87-46.23,13.46-58.15,31.82l-10.22,15.73c-2.56,3.94-1.44,9.21,2.5,11.77,1.43.93,3.04,1.37,4.63,1.37,2.79,0,5.51-1.37,7.14-3.88l10.22-15.73c9.13-14.06,25.16-22.62,45.14-24.11l23.71-1.77c19.23-1.43,35.53-10.38,44.73-24.55,2.56-3.94,1.44-9.21-2.5-11.77Z"/>
      <path class="cls-1" d="m79.62,137.13l-5.87,1.25-1.25-5.87c-.4-1.89-2.26-3.1-4.15-2.7-1.89.4-3.1,2.26-2.7,4.15l1.25,5.87-5.87,1.25c-1.89.4-3.1,2.26-2.7,4.15.35,1.65,1.8,2.77,3.42,2.77.24,0,.49-.03.73-.08l5.87-1.25,1.25,5.87c.35,1.65,1.8,2.77,3.42,2.77.24,0,.49-.02.73-.08,1.89-.4,3.1-2.26,2.7-4.15l-1.25-5.87,5.87-1.25c1.89-.4,3.1-2.26,2.7-4.15-.4-1.89-2.26-3.1-4.15-2.7Z"/>
      <path class="cls-1" d="m73.46,22.3c1.99,1.29,4.26,1.96,6.58,1.96.85,0,1.7-.09,2.55-.27,3.17-.67,5.88-2.54,7.65-5.26,1.76-2.72,2.36-5.96,1.69-9.12-.67-3.17-2.54-5.88-5.26-7.65-2.72-1.76-5.95-2.36-9.12-1.69-3.17.67-5.88,2.54-7.65,5.26-3.64,5.61-2.04,13.13,3.57,16.77Zm2.31-12.96c.75-1.15,1.89-1.94,3.23-2.22.36-.08.72-.11,1.08-.11.98,0,1.94.28,2.78.83,1.15.75,1.94,1.89,2.22,3.23.28,1.34.03,2.71-.71,3.86h0c-.75,1.15-1.89,1.94-3.23,2.22-1.34.28-2.71.03-3.86-.71-2.37-1.54-3.05-4.72-1.51-7.09Z"/>
      <path class="cls-1" d="m160.53,43.26l-6.16-28.98c-.38-1.78-1.45-3.34-2.98-4.34s-3.39-1.34-5.17-.96l-28.98,6.16c-3.71.79-6.08,4.44-5.29,8.15.79,3.71,4.44,6.08,8.15,5.29l22.25-4.73,4.73,22.25c.69,3.23,3.54,5.45,6.72,5.45.47,0,.95-.05,1.44-.15,3.71-.79,6.08-4.44,5.29-8.15Z"/>
      <path class="cls-1" d="m68.66,108.57c1.27,0,2.52-.62,3.26-1.77,1.17-1.8.66-4.21-1.14-5.38l-20.08-13.04c-1.8-1.17-4.21-.66-5.38,1.14-1.17,1.8-.66,4.21,1.14,5.38l20.08,13.04c.65.42,1.39.63,2.11.63Z"/>
      <path class="cls-1" d="m67.2,90.28c.65.42,1.39.63,2.11.63,1.27,0,2.52-.62,3.26-1.77,1.17-1.8.66-4.21-1.14-5.38l-5.86-3.81c-1.8-1.17-4.21-.66-5.38,1.14-1.17,1.8-.66,4.21,1.14,5.38l5.86,3.81Z"/>
      <path class="cls-1" d="m91.52,34.24c-1.8-1.17-4.21-.66-5.38,1.14-1.17,1.8-.66,4.21,1.14,5.38l5.18,3.36c.65.42,1.39.63,2.11.63,1.27,0,2.52-.62,3.26-1.77,1.17-1.8.66-4.21-1.14-5.38l-5.18-3.36Z"/>
      <path class="cls-1" d="m96.7,31.78l12.1,7.85c.65.42,1.39.63,2.11.63,1.27,0,2.52-.62,3.26-1.77,1.17-1.8.66-4.21-1.14-5.38l-12.1-7.85c-1.8-1.17-4.21-.66-5.38,1.14-1.17,1.8-.66,4.21,1.14,5.38Z"/>
    </g>
  </g>
</svg>