<svg id="Layer_2" data-name="Layer 2" xmlns="http://www.w3.org/2000/svg" viewBox="0 0 169.17 152.41" width="auto" height="auto">
  <defs>
    <style>
      .cls-1 {
        fill: currentColor;
      }
    </style>
  </defs>
  <g id="Layer_4" data-name="Layer 4">
    <g>
      <path class="cls-1" d="m92.52,97.06c-2.93.37-5.01,3.04-4.64,5.97.27,2.16.4,4.33.4,6.51l-23.11-15c-1.62-1.05-3.79-.59-4.84,1.03-1.05,1.62-.59,3.79,1.03,4.84l26.34,17.1s0,0,.01,0c-.41,2.78-1.04,5.57-1.88,8.4l-42.37-27.52c7.91-6.37,17.97-10.57,29.55-12.25-3.68-4.71-4.43-11.31-1.63-16.87-22.47,3.16-41.38,14.42-52.42,31.42l-10.37,15.96c-2.56,3.94-1.48,9.19,2.41,11.71,3.89,2.53,9.12,1.38,11.68-2.56l10.37-15.96c1.52-2.34,3.23-4.52,5.11-6.54l10.27,6.67s0,0,0,0l34.99,22.72c-1.33,3.24-2.94,6.52-4.83,9.86-1.46,2.57-.55,5.83,2.02,7.29.83.47,1.74.7,2.63.7,1.86,0,3.67-.98,4.66-2.71,9.02-15.92,12.49-31.01,10.59-46.14-.37-2.93-3.05-5.01-5.97-4.64Z"/>
      <path class="cls-1" d="m33.59,43.52c-5.39,8.31-8.78,17.85-9.78,27.59-.2,1.92,1.2,3.64,3.12,3.84.12.01.24.02.36.02,1.77,0,3.29-1.34,3.48-3.14.89-8.65,3.9-17.12,8.69-24.5,5.11-7.86,12.12-14.33,20.28-18.7,1.7-.91,2.35-3.03,1.43-4.74-.91-1.7-3.03-2.35-4.74-1.43-9.2,4.93-17.1,12.21-22.85,21.06Z"/>
      <path class="cls-1" d="m135.48,109.69c5.39-8.31,8.78-17.85,9.78-27.59.2-1.92-1.2-3.64-3.12-3.84-1.92-.2-3.64,1.2-3.84,3.12-.89,8.65-3.9,17.12-8.69,24.5-5.11,7.86-12.12,14.33-20.29,18.7-1.7.91-2.35,3.03-1.43,4.74.63,1.18,1.84,1.85,3.09,1.85.56,0,1.12-.13,1.65-.42,9.2-4.93,17.1-12.21,22.85-21.06Z"/>
      <path class="cls-1" d="m165.83,75.59c-1.91-.09-3.57,1.4-3.66,3.33-.65,14.06-5.09,27.81-12.85,39.75-7.43,11.45-17.67,20.83-29.59,27.13-1.71.9-2.36,3.02-1.46,4.73.63,1.19,1.84,1.86,3.1,1.86.55,0,1.11-.13,1.63-.41,12.98-6.86,24.1-17.07,32.19-29.51,8.43-12.99,13.27-27.94,13.97-43.25.09-1.93-1.4-3.57-3.33-3.66Z"/>
      <path class="cls-1" d="m50.83,6.63c1.73-.87,2.43-2.97,1.56-4.7-.87-1.73-2.97-2.43-4.7-1.56-13.69,6.87-25.38,17.36-33.82,30.35C5.8,43.16,1,57.48,0,72.12c-.13,1.93,1.33,3.6,3.26,3.73.08,0,.16,0,.24,0,1.83,0,3.36-1.42,3.49-3.26.91-13.45,5.32-26.62,12.75-38.06,7.76-11.94,18.5-21.59,31.08-27.91Z"/>
      <path class="cls-1" d="m92.26,80.72c2.48-3.82,1.43-8.91-2.34-11.36-3.77-2.45-8.85-1.33-11.33,2.48s-1.43,8.91,2.34,11.36c3.77,2.45,8.85,1.33,11.33-2.48Z"/>
      <path class="cls-1" d="m145.94,58.96l15.34-23.62c2.56-3.94,1.48-9.19-2.41-11.71s-9.12-1.38-11.68,2.56l-14.76,22.73-37.03-24.05,5.07-7.81c1.61-2.48.9-5.79-1.57-7.4s-5.79-.9-7.4,1.57l-9.03,13.9c-4.91,7.56-7.35,16.49-7.06,25.85.09,2.9,2.47,5.18,5.34,5.18.06,0,.11,0,.17,0,2.95-.09,5.27-2.56,5.18-5.51-.05-1.77.02-3.51.21-5.23l20.74,13.47c.59.38,1.25.57,1.9.57,1.15,0,2.27-.56,2.94-1.59,1.05-1.62.59-3.79-1.03-4.84l-22.01-14.29c-.3-.2-.62-.32-.95-.42.87-2.59,2.05-5.06,3.53-7.35l.15-.23,36.58,23.75c-6.6,7.03-16.27,11.34-27.85,12.28l-2.06.17c3.46,4.84,3.96,11.44.91,16.92l2.3-.19c19.07-1.54,35.28-10.55,44.48-24.71Z"/>
    </g>
  </g>
</svg>