<svg id="Layer_2" data-name="Layer 2" xmlns="http://www.w3.org/2000/svg" viewBox="0 0 167.16 161.77" width="auto" height="auto">
  <defs>
    <style>
      .cls-1 {
        fill: none;
      }

      .cls-2 {
        fill: currentColor;
      }
    </style>
  </defs>
  <g id="Layer_4" data-name="Layer 4">
    <g>
      <path class="cls-2" d="m77.82,126.35c-.65,0-1.31-.18-1.9-.57l-27.6-17.93c-1.62-1.05-2.08-3.22-1.03-4.84,1.05-1.62,3.22-2.08,4.84-1.03l27.6,17.93c1.62,1.05,2.08,3.22,1.03,4.84-.67,1.03-1.79,1.59-2.94,1.59Z"/>
      <path class="cls-2" d="m75.69,107.14c-.65,0-1.31-.18-1.9-.56l-9.17-5.96c-1.62-1.05-2.08-3.22-1.03-4.84s3.22-2.08,4.84-1.03l9.17,5.96c1.62,1.05,2.08,3.22,1.03,4.84-.67,1.03-1.79,1.59-2.94,1.59Z"/>
      <path class="cls-2" d="m117.08,56.47c-.65,0-1.31-.18-1.9-.57l-21.95-14.26c-1.62-1.05-2.08-3.22-1.03-4.84,1.05-1.62,3.22-2.08,4.84-1.03l21.95,14.26c1.62,1.05,2.08,3.22,1.03,4.84-.67,1.03-1.79,1.59-2.94,1.59Z"/>
      <path class="cls-2" d="m103.06,64.07c-.65,0-1.31-.18-1.9-.57l-9.17-5.96c-1.62-1.05-2.08-3.22-1.03-4.84,1.05-1.62,3.22-2.08,4.84-1.03l9.17,5.96c1.62,1.05,2.08,3.22,1.03,4.84-.67,1.03-1.79,1.59-2.94,1.59Z"/>
      <g>
        <path class="cls-1" d="m71.47,86.66l17.65-3.75c.58-.12.72-.88.22-1.2l-6.09-3.95-9.42,5.73c-.53,1.23-1.34,2.32-2.36,3.18Z"/>
        <path class="cls-1" d="m94.45,69.45l-16.52,3.51c-.58.12-.72.88-.22,1.2l5.55,3.6,11.68-7.1c.63-.39.25-1.36-.48-1.21Z"/>
      </g>
      <path class="cls-2" d="m164.02,30.45c-.35-.56-1.17-.58-1.53-.02l-6.29,9.68c-.27.42-.83.54-1.25.26l-11.3-7.34c-.42-.27-.54-.83-.26-1.25l6.29-9.68c.36-.56.02-1.3-.64-1.39-7.78-1.05-15.83,2.31-20.39,9.33-4.81,7.4-4.34,16.7.46,23.5-.52.73-1.07,1.48-1.65,2.25-5.24,6.96-14.95,11.46-27.35,12.68-.45.04-.88.13-1.3.24-1.34-2.31-3.2-4.36-5.57-5.94-1.78-1.18-3.72-1.98-5.72-2.44l-1.76-14.03c-1.73-13.14,1.31-26.39,9.3-40.52,1.06-1.87.4-4.24-1.47-5.3-1.87-1.06-4.24-.4-5.3,1.47-8.86,15.65-12.21,30.49-10.25,45.34l1.63,12.98c-2.86.6-5.6,1.87-7.97,3.78-2.7,2.17-4.34,4.81-5.35,7.58-.65-.03-1.31.01-1.97.14-17.57,3.4-29.37,9.19-37.11,18.24-1.1,1.28-2.06,2.49-2.91,3.64-7.97-1.32-16.32,2.05-21,9.25-4.56,7.02-4.36,15.75-.23,22.42.35.56,1.17.58,1.53.02l6.29-9.68c.27-.42.83-.54,1.24-.26l11.3,7.34c.42.27.54.83.26,1.24l-6.29,9.68c-.36.56-.02,1.3.64,1.39,7.78,1.05,15.83-2.31,20.39-9.33,4.61-7.1,4.35-15.95.09-22.66.49-.63,1.02-1.29,1.62-1.98,5.04-5.89,14.01-10.01,27.41-12.6.35-.07.69-.16,1.02-.27,1.27,1.78,2.88,3.36,4.82,4.63,3.29,2.14,7.01,3.04,10.65,2.87l2.47,19.74c1.73,13.14-1.31,26.39-9.3,40.52-1.06,1.87-.4,4.24,1.47,5.3.6.34,1.26.5,1.91.5,1.35,0,2.67-.71,3.39-1.97,8.85-15.65,12.21-30.49,10.25-45.34l-2.61-20.81c2.62-1.39,4.93-3.43,6.66-6.09.46-.72.85-1.46,1.2-2.21.71.12,1.45.14,2.21.07,17.2-1.68,31.16-8.57,39.3-19.38,1-1.33,1.91-2.6,2.75-3.81,7.36.81,14.96-2.28,19.46-8.6,5.09-7.14,5.03-16.26.75-23.18Zm-69.09,40.2l-11.68,7.1,6.09,3.95c.49.32.35,1.08-.22,1.2l-17.65,3.75-.6.13c-.73.15-1.11-.82-.48-1.21l3.44-2.09,9.42-5.73-5.55-3.6c-.49-.32-.35-1.08.22-1.2l16.52-3.51c.73-.15,1.11.82.48,1.21Z"/>
    </g>
  </g>
</svg>