<svg id="Layer_2" data-name="Layer 2" xmlns="http://www.w3.org/2000/svg" viewBox="0 0 145.03 167.47" width="auto" height="auto">
  <defs>
    <style>
      .cls-1 {
        fill: currentColor;
      }
    </style>
  </defs>
  <g id="Layer_4" data-name="Layer 4">
    <polygon class="cls-1" points="137.72 55.99 70.12 16.97 70.12 39.91 73.12 41.64 73.12 22.16 134.72 57.72 134.72 103.99 117.97 94.32 117.97 97.78 137.72 109.19 137.72 55.99"/>
    <polygon class="cls-1" points="114.97 115.53 96.44 104.83 96.44 108.29 117.97 120.73 117.97 97.78 114.97 96.05 114.97 115.53"/>
    <polygon class="cls-1" points="53.37 33.7 70.12 43.37 70.12 39.91 50.37 28.51 50.37 53.37 53.37 55.1 53.37 33.7"/>
    <polygon class="cls-1" points="114.97 69.27 114.97 92.59 117.97 94.32 117.97 67.53 73.12 41.64 73.12 45.11 114.97 69.27"/>
    <polygon class="cls-1" points="114.97 92.59 114.97 96.05 117.97 97.78 117.97 94.32 114.97 92.59"/>
    <polygon class="cls-1" points="73.12 45.11 73.12 41.64 70.12 39.91 70.12 43.37 73.12 45.11"/>
    <polygon class="cls-1" points="96.44 81.89 96.44 79.97 73.12 66.51 73.12 68.43 96.44 81.89"/>
    <polygon class="cls-1" points="70.12 64.77 53.37 55.1 53.37 58.57 70.12 68.24 70.12 64.77"/>
    <polygon class="cls-1" points="31.84 46.14 50.37 56.83 50.37 53.37 28.84 40.94 28.84 65.8 31.84 67.53 31.84 46.14"/>
    <polygon class="cls-1" points="93.44 127.96 74.91 117.26 74.91 120.73 96.44 133.16 96.44 108.29 93.44 106.56 93.44 127.96"/>
    <polygon class="cls-1" points="93.44 83.62 93.44 103.1 96.44 104.83 96.44 85.35 93.44 83.62"/>
    <polygon class="cls-1" points="70.12 68.24 93.44 81.7 93.44 83.62 96.44 85.35 96.44 81.89 73.12 68.43 73.12 66.51 70.12 64.77 70.12 68.24"/>
    <polygon class="cls-1" points="53.37 58.57 53.37 55.1 50.37 53.37 50.37 56.83 53.37 58.57"/>
    <polygon class="cls-1" points="93.44 103.1 93.44 106.56 96.44 108.29 96.44 104.83 93.44 103.1"/>
    <polygon class="cls-1" points="71.91 140.39 10.31 104.83 10.31 58.57 28.84 69.27 28.84 65.8 7.31 53.37 7.31 106.56 74.91 145.59 74.91 120.73 71.91 118.99 71.91 140.39"/>
    <polygon class="cls-1" points="50.37 81.7 50.37 78.23 31.84 67.53 31.84 71 71.91 94.13 71.91 115.53 74.91 117.26 74.91 95.86 50.37 81.7"/>
    <polygon class="cls-1" points="74.91 95.86 74.91 92.4 50.37 78.23 50.37 81.7 74.91 95.86"/>
    <polygon class="cls-1" points="71.91 115.53 71.91 118.99 74.91 120.73 74.91 117.26 71.91 115.53"/>
    <polygon class="cls-1" points="31.84 71 31.84 67.53 28.84 65.8 28.84 69.27 31.84 71"/>
    <path class="cls-1" d="m72.52,0L0,41.87v83.73l72.52,41.87,72.52-41.87V41.87L72.52,0Zm64.21,106.59l-19.91-11.4v22.95l-21.7-12.43-.5,24.86-21.2-12.43v24.86L8.31,105.7v-49.73l21.7,12.43v-24.86l21.7,12.43v-24.86l19.91,11.4v-22.94l65.11,37.3v49.73Z"/>
  </g>
</svg>