<svg id="Layer_2" data-name="Layer 2" xmlns="http://www.w3.org/2000/svg" viewBox="0 0 145.13 167.58" width="auto" height="auto">
  <defs>
    <style>
      .cls-1 {
        fill: currentColor;
      }
    </style>
  </defs>
  <g id="Layer_4" data-name="Layer 4">
    <g>
      <path class="cls-1" d="m72.57,68.07c11.25,0,20.06-5.42,20.06-12.33s-8.81-12.33-20.06-12.33-20.06,5.42-20.06,12.33,8.81,12.33,20.06,12.33Zm0-21.35c9.08,0,16.75,4.13,16.75,9.02s-7.67,9.02-16.75,9.02-16.75-4.13-16.75-9.02,7.67-9.02,16.75-9.02Z"/>
      <path class="cls-1" d="m72.57,0L0,41.9v83.79l72.57,41.9,72.57-41.9V41.9L72.57,0Zm-14.97,43.72c4.59-1.17,9.65-1.82,14.97-1.82s10.39.65,14.97,1.82c8.44,2.88,14.2,8.07,14.2,13.84,0,8.8-13.36,16.23-29.17,16.23s-29.17-7.43-29.17-16.23c0-5.78,5.76-10.96,14.2-13.84Zm-15.91,7.68c-1.04,1.93-1.6,4-1.6,6.17,0,10.96,14.27,19.54,32.49,19.54s32.49-8.58,32.49-19.54c0-2.17-.57-4.24-1.6-6.17,4.06,3.47,6.44,7.65,6.44,12.15,0,11.95-16.73,21.65-37.33,21.65s-37.33-9.7-37.33-21.65c0-4.5,2.38-8.69,6.44-12.15Zm34.91,43.36c1.03,0,2.01-.12,2.9-.34-1.14,1.56-3.81,2.66-6.92,2.66-4.15,0-7.51-1.95-7.51-4.36,0-.09,0-.19.01-.28v-5.3c1.32.16,2.66.27,4.02.34v2.63c-.01.09-.02.18-.02.28,0,2.4,3.37,4.36,7.51,4.36Zm-4.02,30.93c-24.31,0-44.04-11.57-44.04-25.83,0-7.66,5.7-14.54,14.75-19.27-2.06,2.78-3.21,5.9-3.21,9.19,0,11.7,14.56,21.21,32.5,21.21s32.5-9.5,32.5-21.21c0-3.29-1.15-6.41-3.21-9.19,9.04,4.73,14.75,11.61,14.75,19.27,0,14.25-19.73,25.83-44.04,25.83Z"/>
      <path class="cls-1" d="m72.57,59.53c4.94,0,8.81-2.55,8.81-5.81s-3.87-5.81-8.81-5.81-8.81,2.55-8.81,5.81,3.87,5.81,8.81,5.81Zm0-8.3c3.36,0,5.5,1.48,5.5,2.49s-2.14,2.49-5.5,2.49-5.5-1.48-5.5-2.49,2.14-2.49,5.5-2.49Z"/>
    </g>
  </g>
</svg>