<svg id="Layer_2" data-name="Layer 2" xmlns="http://www.w3.org/2000/svg" viewBox="0 0 145.13 167.58" width="auto" height="auto">
  <defs>
    <style>
      .cls-1 {
        fill: currentColor;
      }
    </style>
  </defs>
  <g id="Layer_4" data-name="Layer 4">
    <g>
      <polygon class="cls-1" points="72.94 82.38 144.1 41.3 109.38 21.25 38.22 62.34 72.94 82.38"/>
      <polygon class="cls-1" points="106.38 19.52 72.57 0 1.41 41.08 35.22 60.6 106.38 19.52"/>
      <path class="cls-1" d="m74.75,84.81c-.03.09-.07.19-.12.28-.14.24-.33.43-.56.55v45.7c0,.83-.67,1.5-1.5,1.5s-1.5-.67-1.5-1.5v-46.58L0,43.73v81.95l72.57,41.9,72.57-41.9V44.17l-70.38,40.64Zm-45.08-13.75l8.61,5.03v22.25l-1.46,9.49-5.67-3.33-1.48-11.19v-22.25Zm7.15,40.88v6.14l-5.67-3.33v-6.14l5.67,3.33Zm32.75,42.91c0,1.61-1.69,2.66-3.14,1.94L4.76,121.29c-.73-.37-1.2-1.12-1.2-1.94v-7c0-1.61,1.69-2.66,3.14-1.94l61.68,35.49c.73.37,1.2,1.12,1.2,1.94v7Zm23.94-67.82c0-.9.51-1.73,1.32-2.13l26.29-15.17c1.58-.79,3.45.36,3.45,2.13v3.7c0,.9-.51,1.73-1.32,2.13l-26.29,15.17c-1.58.79-3.45-.36-3.45-2.13v-3.7Zm48.24,32.33c0,.82-.46,1.57-1.2,1.94l-61.68,35.49c-1.44.72-3.14-.33-3.14-1.94v-7c0-.82.46-1.57,1.2-1.94l61.68-35.49c1.44-.72,3.14.33,3.14,1.94v7Z"/>
    </g>
  </g>
</svg>