<svg id="Layer_2" data-name="Layer 2" xmlns="http://www.w3.org/2000/svg" viewBox="0 0 145.13 167.58" width="auto" height="auto">
  <defs>
    <style>
      .cls-1 {
        fill: currentColor;
        fill-rule: evenodd;
      }
    </style>
  </defs>
  <g id="Layer_4" data-name="Layer 4">
    <polygon class="cls-1" points="85.1 98.12 85.1 83.2 72.18 75.74 59.26 83.2 59.26 98.12 72.18 105.58 85.1 98.12"/>
    <path class="cls-1" d="m72.57,0L0,41.9v83.79l72.57,41.9,72.57-41.9V41.9L72.57,0ZM30.91,67.03c0-4.51,2.41-8.68,6.31-10.94l29.03-16.76c3.91-2.26,8.72-2.26,12.63,0l29.03,16.76c3.91,2.26,6.31,6.42,6.31,10.94v33.52c0,1.74-.36,3.42-1.03,4.97l-39.88-23.02s-.03-.01-.05-.02c-.05-.02-.09-.04-.14-.06-.04-.02-.09-.04-.13-.05-.04-.01-.09-.02-.14-.03-.05,0-.1-.02-.15-.02-.04,0-.09,0-.14,0-.05,0-.1,0-.15,0-.05,0-.09.01-.14.02-.05,0-.1.02-.15.03-.04.01-.08.03-.13.05-.05.02-.1.04-.15.07-.01,0-.03.01-.05.02l-39.88,23.02c-.66-1.55-1.03-3.23-1.03-4.96v-33.52Zm37.38,81.68v5.2c0,.78-.74.85-1.37.13l-4.7-5.39-4.44-5.09c-.34-.39-.51-.85-.51-1.22v6.04c0,.78-.74.85-1.37.13l-4.7-5.39-4.44-5.09c-.34-.39-.51-.85-.51-1.22v5.15c0,.78-.74.85-1.37.13l-4.7-5.39-4.44-5.09c-.68-.78-.68-1.85,0-1.85l4.44.04,4.7.04c.62,0,1.37.94,1.37,1.71v5.25c0-.36.17-.63.51-.63l4.44.04,4.7.04c.62,0,1.37.94,1.37,1.71v4.36c0-.37.17-.63.51-.63l4.44.04,4.7.04c.62,0,1.37.94,1.37,1.71v5.2Zm39.61-37.23l-29.03,16.76c-3.91,2.26-8.72,2.26-12.63,0l-29.03-16.76c-1.51-.87-2.78-2.03-3.79-3.37l39.13-22.59,39.13,22.59c-1.01,1.35-2.28,2.5-3.79,3.37Zm26.38-49.79l-4.44,5.09-4.7,5.39c-.62.72-1.37.64-1.37-.13v-10.41c0-.78.74-1.71,1.37-1.71l4.7-.04,4.44-.04c.68,0,.68,1.07,0,1.85Z"/>
    <g>
      <path class="cls-1" d="m57.29,60.84c0,8.23,6.67,14.9,14.9,14.9,0-8.23-6.67-14.9-14.9-14.9Z"/>
      <path class="cls-1" d="m72.19,45.89c-5.82,5.82-5.82,15.25,0,21.07,5.82-5.82,5.82-15.25,0-21.07Z"/>
      <path class="cls-1" d="m72.18,75.74c8.23,0,14.9-6.67,14.9-14.9-8.23,0-14.9,6.67-14.9,14.9Z"/>
    </g>
  </g>
</svg>