<svg id="Layer_2" data-name="Layer 2" xmlns="http://www.w3.org/2000/svg" viewBox="0 0 167.58 167.58" width="auto" height="auto">
  <defs>
    <style>
      .cls-1 {
        fill: currentColor;
      }
    </style>
  </defs>
  <g id="Layer_4" data-name="Layer 4">
    <path class="cls-1" d="m51.9,161.98c-1.19,0-2.4-.25-3.55-.78-18.19-8.37-32.93-22.93-41.5-41-2.01-4.25-.2-9.32,4.04-11.34,4.24-2.01,9.32-.2,11.34,4.04,6.86,14.47,18.67,26.13,33.23,32.83,4.27,1.96,6.14,7.02,4.17,11.29-1.43,3.12-4.52,4.96-7.74,4.96Z"/>
    <path class="cls-1" d="m14.62,59.15c-1.23,0-2.48-.27-3.66-.83-4.24-2.03-6.04-7.11-4.01-11.35C15.53,29,30.23,14.52,48.35,6.18c4.27-1.96,9.32-.09,11.29,4.17,1.96,4.27.09,9.32-4.17,11.29-14.51,6.67-26.28,18.27-33.16,32.66-1.46,3.06-4.51,4.84-7.68,4.84Z"/>
    <path class="cls-1" d="m153.27,59.15c-3.18,0-6.22-1.79-7.68-4.84-6.59-13.8-17.79-25.13-31.53-31.89-4.22-2.08-5.95-7.18-3.87-11.39,2.08-4.22,7.18-5.95,11.39-3.87,17.15,8.45,31.13,22.59,39.36,39.83,2.03,4.24.23,9.32-4.01,11.35-1.18.57-2.43.83-3.66.83Z"/>
    <path class="cls-1" d="m117.83,161.12c-3.14,0-6.16-1.74-7.64-4.75-2.08-4.22-.34-9.32,3.87-11.39,13.79-6.79,25.02-18.18,31.6-32.06,2.01-4.25,7.09-6.06,11.34-4.04,4.25,2.01,6.06,7.09,4.04,11.34-8.22,17.34-22.24,31.56-39.46,40.04-1.21.6-2.49.88-3.75.88Z"/>
    <rect class="cls-1" x="147" y="73.3" width="20.58" height="20.58" rx="10.29" ry="10.29"/>
    <rect class="cls-1" x="0" y="73.3" width="20.58" height="20.58" rx="10.29" ry="10.29"/>
    <rect class="cls-1" x="73.5" y="157.29" width="10.29" height="10.29" rx="5.14" ry="5.14"/>
    <rect class="cls-1" x="83.79" y="157.29" width="10.29" height="10.29" rx="5.14" ry="5.14"/>
    <rect class="cls-1" x="73.5" y="0" width="10.29" height="10.29" rx="5.14" ry="5.14"/>
    <rect class="cls-1" x="83.79" y="0" width="10.29" height="10.29" rx="5.14" ry="5.14"/>
    <path class="cls-1" d="m123.75,70.99c-3.23,7.41-10.61,12.6-19.21,12.6h0c-11.57,0-20.95-9.38-20.95-20.95h0c0-8.53,5.11-15.86,12.43-19.13-3.87-1.18-7.98-1.82-12.24-1.82h0c-23.14,0-41.9,18.76-41.9,41.9s18.76,41.9,41.9,41.9h0c23.14,0,41.9-18.76,41.9-41.9,0-4.39-.68-8.62-1.93-12.6Z"/>
  </g>
</svg>