<svg id="Layer_2" data-name="Layer 2" xmlns="http://www.w3.org/2000/svg" viewBox="0 0 167.58 167.58" width="auto" height="auto">
  <defs>
    <style>
      .cls-1 {
        fill: currentColor;
      }
    </style>
  </defs>
  <g id="Layer_4" data-name="Layer 4">
    <g>
      <path class="cls-1" d="m125.68,87.49c-1.75,0-3.26-1.31-3.47-3.09-2.63-22.35-19.15-39.2-38.42-39.2-14.72,0-26.7,14.09-26.7,31.41,0,2.16.19,4.32.56,6.42.34,1.9-.93,3.72-2.84,4.06-1.91.34-3.72-.93-4.06-2.84-.44-2.5-.67-5.07-.67-7.64,0-21.18,15.12-38.41,33.7-38.41,22.82,0,42.33,19.51,45.37,45.38.23,1.92-1.15,3.66-3.07,3.89-.14.02-.28.02-.41.02Z"/>
      <path class="cls-1" d="m83.79,115.03c-15.98,0-29.87-12.94-33.03-30.77-.34-1.9.93-3.72,2.84-4.06,1.9-.34,3.72.93,4.06,2.84,2.57,14.48,13.56,24.99,26.14,24.99,8.06,0,14.62-7.83,14.62-17.45,0-2.41-.41-4.75-1.21-6.95-.66-1.82.27-3.83,2.08-4.49,1.81-.67,3.83.27,4.49,2.08,1.09,2.97,1.64,6.12,1.64,9.35,0,13.48-9.7,24.45-21.62,24.45Z"/>
      <path class="cls-1" d="m83.79,101.06c-11.92,0-21.62-10.97-21.62-24.45,0-1.93,1.57-3.5,3.5-3.5s3.5,1.57,3.5,3.5c0,9.62,6.56,17.45,14.62,17.45,1.38,0,2.54-1.59,2.54-3.48s-1.16-3.48-2.54-3.48c-5.26,0-9.54-4.7-9.54-10.48s4.28-10.48,9.54-10.48c8.78,0,16.63,5.92,19.98,15.09.66,1.82-.27,3.83-2.08,4.49-1.81.67-3.83-.27-4.49-2.08-2.34-6.38-7.6-10.5-13.41-10.5-1.38,0-2.54,1.59-2.54,3.48s1.16,3.48,2.54,3.48c5.26,0,9.54,4.7,9.54,10.48s-4.28,10.48-9.54,10.48Z"/>
      <path class="cls-1" d="m113.39,87.15c-1.67,0-3.15-1.2-3.44-2.9-2.54-14.53-13.54-25.08-26.16-25.08-1.93,0-3.5-1.57-3.5-3.5s1.57-3.5,3.5-3.5c16.03,0,29.93,12.99,33.05,30.88.33,1.9-.94,3.72-2.85,4.05-.2.04-.41.05-.61.05Z"/>
      <path class="cls-1" d="m113.99,94.08c-1.93,0-3.5-1.57-3.5-3.5,0-2.13-.18-4.26-.54-6.33-.33-1.9.94-3.72,2.85-4.05,1.91-.33,3.72.94,4.05,2.85.43,2.47.65,5,.65,7.54,0,1.93-1.57,3.5-3.5,3.5Z"/>
      <path class="cls-1" d="m83.79,128.99c-22.82,0-42.33-19.51-45.37-45.38-.23-1.92,1.15-3.66,3.07-3.89,1.91-.23,3.66,1.15,3.89,3.07,2.63,22.35,19.15,39.2,38.42,39.2,1.93,0,3.5,1.57,3.5,3.5s-1.57,3.5-3.5,3.5Z"/>
    </g>
    <path class="cls-1" d="m51.9,162.18c-1.19,0-2.4-.25-3.55-.78-18.19-8.37-32.93-22.93-41.5-41-2.01-4.25-.2-9.32,4.04-11.34,4.24-2.01,9.32-.2,11.34,4.04,6.86,14.47,18.67,26.13,33.23,32.83,4.27,1.96,6.14,7.02,4.17,11.29-1.43,3.12-4.52,4.96-7.74,4.96Z"/>
    <path class="cls-1" d="m14.62,59.35c-1.23,0-2.48-.27-3.66-.83-4.24-2.03-6.04-7.11-4.01-11.35C15.53,29.2,30.23,14.71,48.35,6.38c4.27-1.96,9.32-.09,11.29,4.17,1.96,4.27.09,9.32-4.17,11.29-14.51,6.67-26.28,18.27-33.16,32.66-1.46,3.06-4.51,4.84-7.68,4.84Z"/>
    <path class="cls-1" d="m153.27,59.35c-3.18,0-6.22-1.79-7.68-4.84-6.59-13.8-17.79-25.13-31.53-31.89-4.22-2.08-5.95-7.18-3.87-11.39,2.08-4.22,7.18-5.95,11.39-3.87,17.15,8.45,31.13,22.59,39.36,39.83,2.03,4.24.23,9.32-4.01,11.35-1.18.57-2.43.83-3.66.83Z"/>
    <path class="cls-1" d="m117.83,161.32c-3.14,0-6.16-1.74-7.64-4.75-2.08-4.22-.34-9.32,3.87-11.39,13.79-6.79,25.02-18.18,31.6-32.06,2.01-4.25,7.09-6.06,11.34-4.04,4.25,2.01,6.06,7.09,4.04,11.34-8.22,17.34-22.24,31.56-39.46,40.04-1.21.6-2.49.88-3.75.88Z"/>
    <g>
      <rect class="cls-1" x="73.5" y="147" width="20.58" height="20.58" rx="10.29" ry="10.29" transform="translate(241.09 73.5) rotate(90)"/>
      <rect class="cls-1" x="73.5" y="0" width="20.58" height="20.58" rx="10.29" ry="10.29" transform="translate(94.08 -73.5) rotate(90)"/>
    </g>
    <rect class="cls-1" x="0" y="73.7" width="10.29" height="10.29" rx="5.14" ry="5.14" transform="translate(83.99 73.7) rotate(90)"/>
    <rect class="cls-1" x="0" y="83.99" width="10.29" height="10.29" rx="5.14" ry="5.14" transform="translate(94.28 83.99) rotate(90)"/>
    <rect class="cls-1" x="157.29" y="73.7" width="10.29" height="10.29" rx="5.14" ry="5.14" transform="translate(241.28 -83.59) rotate(90)"/>
    <rect class="cls-1" x="157.29" y="83.99" width="10.29" height="10.29" rx="5.14" ry="5.14" transform="translate(251.57 -73.3) rotate(90)"/>
  </g>
</svg>