<svg id="Layer_2" data-name="Layer 2" xmlns="http://www.w3.org/2000/svg" viewBox="0 0 167.58 162.61" width="auto" height="auto">
  <defs>
    <style>
      .cls-1 {
        fill: currentColor;
      }
    </style>
  </defs>
  <g id="Layer_4" data-name="Layer 4">
    <path class="cls-1" d="m85.69,102.68c-12.38,0-22.45-10.07-22.45-22.45s10.07-22.45,22.45-22.45,22.45,10.07,22.45,22.45-10.07,22.45-22.45,22.45Zm0-41.89c-10.72,0-19.45,8.72-19.45,19.45s8.72,19.45,19.45,19.45,19.45-8.72,19.45-19.45-8.72-19.45-19.45-19.45Z"/>
    <path class="cls-1" d="m67.16,101.69c-.54,0-1.03-.36-1.17-.9-.17-.65.21-1.31.86-1.48,1.67-.44,3.27-1.1,4.76-1.96.58-.33,1.32-.13,1.66.45.33.58.13,1.32-.45,1.66-1.68.96-3.48,1.7-5.35,2.2-.1.03-.21.04-.31.04Zm-10.84-.02c-.11,0-.21-.01-.32-.04-1.84-.5-3.62-1.24-5.29-2.21l.57-1.07.62-1.04-.62,1.04.64-1.03c1.5.87,3.08,1.53,4.73,1.97.65.18,1.03.84.85,1.49-.15.54-.64.9-1.17.9Zm23.57-9.73c-.2,0-.4-.05-.58-.15-.58-.33-.8-1.05-.46-1.63l1.05.6-1.03-.65c.87-1.51,1.54-3.11,1.98-4.77.17-.65.84-1.03,1.49-.86.65.17,1.03.84.86,1.49-.5,1.86-1.25,3.66-2.22,5.34-.23.4-.65.63-1.09.63Zm-36.26-.05c-.42,0-.83-.22-1.05-.61-.96-1.68-1.7-3.47-2.2-5.35-.17-.65.21-1.31.86-1.48.64-.17,1.31.21,1.48.86.44,1.67,1.1,3.27,1.96,4.76.33.58.13,1.32-.45,1.66-.19.11-.4.16-.6.16Zm38.39-15.85c-.54,0-1.03-.36-1.17-.9-.45-1.67-1.11-3.27-1.97-4.76-.33-.58-.13-1.32.45-1.66.58-.33,1.32-.13,1.66.45.96,1.67,1.71,3.47,2.21,5.34.17.65-.21,1.31-.86,1.49-.1.03-.21.04-.31.04Zm-40.46-.04c-.1,0-.21-.01-.32-.04-.65-.18-1.03-.84-.85-1.49.5-1.85,1.24-3.64,2.21-5.31l2.11,1.2-.02.03c-.85,1.48-1.52,3.07-1.96,4.71-.15.54-.64.9-1.17.9Zm9.78-12.7c-.42,0-.83-.22-1.05-.61-.33-.58-.13-1.32.45-1.66,1.68-.96,3.47-1.7,5.35-2.2.65-.17,1.31.21,1.49.86.17.65-.21,1.31-.86,1.49-1.67.44-3.27,1.11-4.76,1.96-.19.11-.4.16-.6.16Zm20.36-.12s-.04-.02-.06-.03h0s0,0,0,0c-1.52-.87-3.1-1.52-4.73-1.96-.65-.17-1.03-.84-.86-1.49.17-.65.84-1.03,1.49-.86,1.85.5,3.65,1.24,5.32,2.21l-1.17,2.13Z"/>
    <path class="cls-1" d="m51.9,158.12c-.96,0-1.94-.2-2.87-.63-17.84-8.21-32.29-22.49-40.7-40.21-1.63-3.43-.17-7.53,3.26-9.16,3.43-1.63,7.53-.17,9.16,3.26,7.03,14.82,19.11,26.76,34.03,33.62,3.45,1.59,4.96,5.67,3.37,9.12-1.16,2.52-3.65,4-6.25,4Z"/>
    <path class="cls-1" d="m14.62,55.29c-.99,0-2-.22-2.96-.67-3.43-1.64-4.88-5.74-3.24-9.16C16.84,27.82,31.26,13.62,49.03,5.44c3.45-1.59,7.53-.08,9.12,3.37,1.59,3.45.08,7.53-3.37,9.12-14.85,6.83-26.91,18.71-33.95,33.44-1.18,2.47-3.64,3.91-6.21,3.91Z"/>
    <path class="cls-1" d="m153.27,55.29c-2.57,0-5.03-1.44-6.21-3.91-6.75-14.13-18.21-25.73-32.28-32.66-3.41-1.68-4.81-5.8-3.13-9.2,1.68-3.41,5.8-4.81,9.2-3.13,16.82,8.29,30.53,22.16,38.61,39.06,1.64,3.43.19,7.53-3.24,9.16-.96.46-1.96.67-2.96.67Z"/>
    <path class="cls-1" d="m117.83,157.26c-2.54,0-4.97-1.41-6.17-3.84-1.68-3.41-.28-7.53,3.13-9.2,14.12-6.96,25.62-18.62,32.36-32.83,1.63-3.43,5.72-4.89,9.16-3.26,3.43,1.63,4.89,5.73,3.26,9.16-8.07,17-21.81,30.95-38.71,39.27-.98.48-2.01.71-3.03.71Z"/>
    <path class="cls-1" d="m77.88,0h13.97C92.47,0,92.97.5,92.97,1.12v13.88c0,.61-.49,1.1-1.1,1.1h-13.99c-.62,0-1.12-.5-1.12-1.12V1.12C76.75.5,77.26,0,77.88,0Z"/>
    <rect class="cls-1" x="86.74" y="59.29" width="41.89" height="41.89" rx="20.95" ry="20.95" transform="translate(27.45 187.91) rotate(-90)"/>
    <path class="cls-1" d="m77.64,153.49v-7.61c0-1.14,1.09-1.87,2-1.35l6.87,3.91,6.49,3.7c.99.56.99,2.13,0,2.7l-6.49,3.7-6.87,3.91c-.91.52-2-.21-2-1.35v-7.61Z"/>
    <g>
      <path class="cls-1" d="m157.11,81.36v-4.95c0-.74.71-1.22,1.3-.88l4.47,2.54,4.22,2.4c.65.37.65,1.39,0,1.76l-4.22,2.4-4.47,2.54c-.59.34-1.3-.14-1.3-.88v-4.95Z"/>
      <path class="cls-1" d="m146.64,81.36v-4.95c0-.74.71-1.22,1.3-.88l4.47,2.54,4.22,2.4c.65.37.65,1.39,0,1.76l-4.22,2.4-4.47,2.54c-.59.34-1.3-.14-1.3-.88v-4.95Z"/>
    </g>
    <g>
      <path class="cls-1" d="m10.47,81.36v4.95c0,.74-.71,1.22-1.3.88l-4.47-2.54-4.22-2.4c-.65-.37-.65-1.39,0-1.76l4.22-2.4,4.47-2.54c.59-.34,1.3.14,1.3.88v4.95Z"/>
      <path class="cls-1" d="m20.95,81.36v4.95c0,.74-.71,1.22-1.3.88l-4.47-2.54-4.22-2.4c-.65-.37-.65-1.39,0-1.76l4.22-2.4,4.47-2.54c.59-.34,1.3.14,1.3.88v4.95Z"/>
    </g>
  </g>
</svg>