<svg id="Layer_2" data-name="Layer 2" xmlns="http://www.w3.org/2000/svg" viewBox="0 0 167.58 167.58" width="auto" height="auto">
  <defs>
    <style>
      .cls-1 {
        fill: currentColor;
      }
    </style>
  </defs>
  <g id="Layer_4" data-name="Layer 4">
    <path class="cls-1" d="m123.13,125.7c-.38,0-.77-.15-1.06-.44L44.04,47.23c-.59-.59-.59-1.54,0-2.12.59-.59,1.54-.59,2.12,0l78.03,78.03c.59.59.59,1.54,0,2.12-.29.29-.68.44-1.06.44Z"/>
    <path class="cls-1" d="m138.73,83.52c-.83,0-1.5-.67-1.5-1.5,0-29.08-23.66-52.74-52.74-52.74-.83,0-1.5-.67-1.5-1.5s.67-1.5,1.5-1.5c30.73,0,55.74,25,55.74,55.74,0,.83-.67,1.5-1.5,1.5Z"/>
    <path class="cls-1" d="m81.33,140.92c-30.73,0-55.74-25-55.74-55.74,0-.83.67-1.5,1.5-1.5s1.5.67,1.5,1.5c0,29.08,23.66,52.74,52.74,52.74.83,0,1.5.67,1.5,1.5s-.67,1.5-1.5,1.5Z"/>
    <path class="cls-1" d="m50.83,162.38c-1.19,0-2.4-.25-3.55-.78-18.19-8.37-32.93-22.93-41.5-41-2.01-4.25-.2-9.32,4.04-11.34,4.25-2.01,9.32-.2,11.34,4.04,6.86,14.47,18.67,26.13,33.23,32.83,4.27,1.96,6.14,7.02,4.17,11.29-1.43,3.12-4.52,4.96-7.74,4.96Z"/>
    <path class="cls-1" d="m13.55,59.54c-1.23,0-2.48-.27-3.66-.83-4.24-2.03-6.04-7.11-4.01-11.35C14.46,29.39,29.16,14.91,47.28,6.57c4.27-1.96,9.32-.09,11.29,4.17,1.96,4.27.09,9.32-4.17,11.29-14.51,6.67-26.28,18.27-33.16,32.66-1.46,3.06-4.51,4.84-7.68,4.84Z"/>
    <path class="cls-1" d="m152.2,59.54c-3.18,0-6.22-1.79-7.68-4.84-6.59-13.8-17.79-25.13-31.53-31.89-4.22-2.08-5.95-7.18-3.87-11.39,2.08-4.22,7.18-5.95,11.39-3.87,17.15,8.45,31.13,22.59,39.36,39.83,2.03,4.24.23,9.32-4.01,11.35-1.18.57-2.43.83-3.66.83Z"/>
    <path class="cls-1" d="m116.76,161.51c-3.14,0-6.16-1.74-7.64-4.75-2.08-4.22-.34-9.32,3.87-11.39,13.79-6.79,25.02-18.18,31.6-32.06,2.01-4.25,7.09-6.06,11.34-4.04,4.25,2.01,6.06,7.09,4.04,11.34-8.22,17.34-22.24,31.56-39.46,40.04-1.21.6-2.49.88-3.75.88Z"/>
    <rect class="cls-1" x="115.24" y="116.31" width="9.38" height="9.38"/>
    <rect class="cls-1" x="40.82" y="41.9" width="9.38" height="9.38"/>
    <path class="cls-1" d="m82.54,41.95h0c-23.21,0-42.03,18.82-42.03,42.03h0c0,23.21,18.82,42.03,42.03,42.03h0c23.21,0,42.03-18.82,42.03-42.03h0c0-23.21-18.82-42.03-42.03-42.03Zm29.56,21.08c0,5.46-4.43,9.89-9.89,9.89h0c-5.46,0-9.89-4.43-9.89-9.89h0c0-5.46,4.43-9.89,9.89-9.89h0c5.46,0,9.89,4.43,9.89,9.89h0Z"/>
    <path class="cls-1" d="m83.79,151.48h7.61c1.14,0,1.87,1.09,1.35,2l-3.91,6.87-3.7,6.49c-.56.99-2.13.99-2.7,0l-3.7-6.49-3.91-6.87c-.52-.91.21-2,1.35-2h7.61Z"/>
    <path class="cls-1" d="m83.79,16.1h-7.61c-1.14,0-1.87-1.09-1.35-2l3.91-6.87,3.7-6.49c.56-.99,2.13-.99,2.7,0l3.7,6.49,3.91,6.87c.52.91-.21,2-1.35,2h-7.61Z"/>
    <path class="cls-1" d="m151.48,83.79v-7.61c0-1.14,1.09-1.87,2-1.35l6.87,3.91,6.49,3.7c.99.56.99,2.13,0,2.7l-6.49,3.7-6.87,3.91c-.91.52-2-.21-2-1.35v-7.61Z"/>
    <path class="cls-1" d="m16.1,83.79v7.61c0,1.14-1.09,1.87-2,1.35l-6.87-3.91-6.49-3.7c-.99-.56-.99-2.13,0-2.7l6.49-3.7,6.87-3.91c.91-.52,2,.21,2,1.35v7.61Z"/>
  </g>
</svg>