<?xml version="1.0" encoding="UTF-8" standalone="no"?><!DOCTYPE svg PUBLIC "-//W3C//DTD SVG 1.1//EN" "http://www.w3.org/Graphics/SVG/1.1/DTD/svg11.dtd"><svg width="auto" height="auto" viewBox="0 0 333 78" fill="none" xmlns="http://www.w3.org/2000/svg" xmlns:xlink="http://www.w3.org/1999/xlink" xml:space="preserve" xmlns:serif="http://www.serif.com/">
<g><path fill-rule="evenodd" clip-rule="evenodd" d="M83.692,30.78l10.966,-1.875c2.33,-0.398 4.067,-1.271 5.197,-2.519c1.269,-1.368 1.8,-3.122 1.418,-5.358c-0.452,-2.641 -2.356,-4.426 -4.906,-4.757l-0.016,-0.093c1.829,-1.081 2.74,-2.675 2.363,-4.881c-0.303,-1.77 -1.2,-3.088 -2.654,-3.926c-1.345,-0.762 -3.15,-1.029 -5.449,-0.636l-10.717,1.833l3.798,22.212Zm4.682,-5.341l-0.903,-5.281l4.846,-0.829c1.678,-0.286 3.137,0.391 3.439,2.162c0.271,1.585 -0.672,2.801 -2.474,3.109l-4.908,0.839Zm-1.54,-9.009l-0.76,-4.442l4.505,-0.771c1.615,-0.276 2.778,0.357 3.017,1.755c0.25,1.46 -0.705,2.422 -2.289,2.693l-4.473,0.765Z" fill="currentColor"/><path fill-rule="evenodd" clip-rule="evenodd" d="M105.056,27.212l17.143,-2.104l-0.576,-4.692l-11.606,1.424l-0.587,-4.786l9.791,-1.202l-0.529,-4.316l-9.792,1.201l-0.491,-4.004l11.418,-1.401l-0.561,-4.567l-16.955,2.081l2.745,22.366Z" fill="currentColor"/><path fill-rule="evenodd" clip-rule="evenodd" d="M134.951,24.571c3.174,-0.239 5.402,-1.292 7.005,-3.088c1.429,-1.593 2.281,-3.711 2.27,-5.954l-5.563,0.419c-0.088,2.187 -1.604,3.881 -4.087,4.068c-3.331,0.251 -5.63,-2.578 -5.94,-6.695c-0.308,-4.086 1.191,-7.264 4.837,-7.539c2.388,-0.18 4.076,1.242 4.51,3.232l5.563,-0.419c-0.472,-2.493 -1.77,-4.608 -3.829,-5.938c-1.695,-1.105 -3.952,-1.694 -6.561,-1.497c-6.694,0.504 -10.681,5.893 -10.177,12.587c0.506,6.725 5.372,11.321 11.972,10.824Z" fill="currentColor"/><path fill-rule="evenodd" clip-rule="evenodd" d="M157.448,18.971c-3.623,0.084 -5.554,-2.993 -5.649,-7.089c-0.094,-4.096 1.692,-7.29 5.316,-7.373c3.655,-0.085 5.523,3.025 5.618,7.121c0.094,4.096 -1.63,7.257 -5.285,7.341Zm0.074,4.538c6.837,-0.158 11.038,-5.267 10.882,-12.01c-0.155,-6.743 -4.588,-11.653 -11.425,-11.495c-6.806,0.157 -11.007,5.266 -10.851,12.009c0.156,6.743 4.588,11.653 11.394,11.496Z" fill="currentColor"/><path fill-rule="evenodd" clip-rule="evenodd" d="M171.362,22.717l5.008,0.168l0.38,-11.308c0.031,-0.914 0.058,-4.539 0.058,-4.539l0.063,0.002c-0,-0 0.673,3.428 0.897,4.256l2.823,11.731l4.599,0.154l3.636,-11.546c0.279,-0.81 1.18,-4.154 1.18,-4.154l0.063,0.002c-0,-0 -0.215,3.588 -0.246,4.501l-0.381,11.34l5.103,0.171l0.756,-22.522l-7.559,-0.254l-3.103,9.767c-0.426,1.404 -1.433,5.092 -1.433,5.092l-0.063,-0.002c0,-0 -0.757,-3.747 -1.119,-5.178l-2.409,-9.951l-7.497,-0.252l-0.756,22.522Z" fill="currentColor"/><path fill-rule="evenodd" clip-rule="evenodd" d="M198.166,23.868l5.564,0.412l1.665,-22.473l-5.563,-0.412l-1.666,22.473Z" fill="currentColor"/><path fill-rule="evenodd" clip-rule="evenodd" d="M207.315,24.487l5.42,0.599l1.153,-10.432c0.087,-0.783 0.343,-3.672 0.343,-3.672l0.063,0.007c-0,0 0.955,2.548 1.265,3.184l5.352,11.817l5.576,0.617l2.477,-22.398l-5.419,-0.6l-1.175,10.62c-0.086,0.783 -0.322,3.484 -0.322,3.484l-0.062,-0.007c-0,0 -0.945,-2.356 -1.22,-3.02l-5.398,-11.981l-5.576,-0.616l-2.477,22.398Z" fill="currentColor"/><path fill-rule="evenodd" clip-rule="evenodd" d="M239.684,29.18c2.675,0.438 5,-0.107 6.834,-2.138l0.062,0.011l-0.128,2.725l3.857,0.632l1.958,-11.943l-9.269,-1.519l-0.663,4.044l4.168,0.683l-0.01,0.062c-0.539,1.923 -2.566,3.571 -5.458,3.097c-3.483,-0.57 -5.104,-3.934 -4.436,-8.008c0.662,-4.044 2.997,-6.791 6.667,-6.189c2.426,0.397 3.695,2.01 3.803,3.881l5.35,0.876c0.049,-4.782 -2.873,-8.391 -8.595,-9.329c-3.204,-0.525 -5.964,0.141 -8.105,1.706c-2.461,1.768 -4.148,4.654 -4.719,8.137c-0.555,3.39 0.023,6.487 1.605,8.918c1.509,2.291 3.907,3.834 7.079,4.354Z" fill="currentColor"/></g><path d="M0,74.651c52.638,-19.326 109.497,-29.878 168.801,-29.878c57.323,0 112.362,9.859 163.512,27.971l-1.185,3.255c-50.78,-17.978 -105.42,-27.763 -162.327,-27.763c-58.888,0 -115.348,10.478 -167.616,29.67l-1.185,-3.255Z" fill="#f6fff7"/></svg>