<?xml version="1.0" encoding="UTF-8" standalone="no"?><!DOCTYPE svg PUBLIC "-//W3C//DTD SVG 1.1//EN" "http://www.w3.org/Graphics/SVG/1.1/DTD/svg11.dtd"><svg width="auto" height="auto" viewBox="0 0 333 77" fill="none" xmlns="http://www.w3.org/2000/svg" xmlns:xlink="http://www.w3.org/1999/xlink" xml:space="preserve" xmlns:serif="http://www.serif.com/">
<g><path fill-rule="evenodd" clip-rule="evenodd" d="M83.623,25.739l-2.274,-12.977l3.29,-0.576c3.446,-0.604 5.859,1.661 6.566,5.696c0.713,4.067 -0.753,6.66 -4.354,7.291l-3.228,0.566Zm-4.684,5.588l9.126,-1.599c2.794,-0.49 4.904,-1.596 6.414,-3.204c2.152,-2.329 2.969,-5.704 2.283,-9.615c-1.191,-6.799 -6.098,-10.515 -12.245,-9.438l-9.468,1.66l3.89,22.196Z" fill="currentColor"/><path fill-rule="evenodd" clip-rule="evenodd" d="M101.33,27.503l17.136,-2.154l-0.59,-4.691l-11.601,1.459l-0.601,-4.785l9.787,-1.23l-0.542,-4.315l-9.788,1.23l-0.503,-4.003l11.414,-1.435l-0.574,-4.565l-16.949,2.131l2.811,22.358Z" fill="currentColor"/><path fill-rule="evenodd" clip-rule="evenodd" d="M130.292,24.878c5.184,-0.414 8.997,-3.343 8.62,-8.055c-0.384,-4.807 -4.257,-5.794 -8.513,-6.434c-3.422,-0.485 -5.18,-0.724 -5.306,-2.295c-0.1,-1.257 1.12,-2.208 3.068,-2.363c2.073,-0.166 3.471,0.702 3.829,2.413l5.435,-0.435c-0.597,-4.695 -4.543,-6.593 -9.412,-6.203c-5.027,0.401 -8.754,2.818 -8.37,7.624c0.377,4.713 4.588,5.578 8.556,6.178c3.139,0.507 4.991,0.739 5.135,2.53c0.135,1.696 -1.603,2.499 -3.425,2.645c-2.67,0.213 -4.222,-0.611 -4.654,-2.853l-5.593,0.447c0.523,4.953 4.661,7.279 10.63,6.801Z" fill="currentColor"/><path fill-rule="evenodd" clip-rule="evenodd" d="M142.293,23.549l5.573,-0.254l-1.024,-22.511l-5.572,0.253l1.023,22.512Z" fill="currentColor"/><path fill-rule="evenodd" clip-rule="evenodd" d="M161.293,23.483c2.71,-0.025 4.908,-0.96 6.368,-3.274l0.063,-0.001l0.34,2.708l3.908,-0.036l-0.112,-12.102l-9.392,0.087l0.038,4.097l4.223,-0.039l0.001,0.063c-0.203,1.987 -1.918,3.957 -4.849,3.984c-3.529,0.033 -5.701,-3.004 -5.739,-7.132c-0.038,-4.097 1.792,-7.203 5.511,-7.238c2.459,-0.023 3.984,1.35 4.411,3.174l5.42,-0.05c-0.768,-4.721 -4.264,-7.777 -10.063,-7.723c-3.246,0.03 -5.851,1.157 -7.693,3.065c-2.123,2.163 -3.292,5.295 -3.259,8.824c0.032,3.435 1.131,6.388 3.105,8.513c1.878,2 4.504,3.11 7.719,3.08Z" fill="currentColor"/><path fill-rule="evenodd" clip-rule="evenodd" d="M175.165,22.96l5.448,0.236l0.453,-10.486c0.034,-0.787 0.096,-3.686 0.096,-3.686l0.063,0.002c-0,0 1.123,2.478 1.475,3.093l6.131,11.432l5.605,0.242l0.972,-22.514l-5.447,-0.235l-0.461,10.674c-0.034,0.787 -0.088,3.498 -0.088,3.498l-0.063,-0.003c-0,0 -1.1,-2.287 -1.419,-2.932l-6.187,-11.592l-5.605,-0.242l-0.973,22.513Z" fill="currentColor"/><path fill-rule="evenodd" clip-rule="evenodd" d="M198.071,24.139l5.561,0.442l1.785,-22.463l-5.561,-0.442l-1.785,22.463Z" fill="currentColor"/><path fill-rule="evenodd" clip-rule="evenodd" d="M207.238,24.809l5.416,0.628l1.21,-10.425c0.09,-0.783 0.362,-3.67 0.362,-3.67l0.063,0.007c-0,0 0.941,2.552 1.247,3.191l5.289,11.845l5.573,0.647l2.597,-22.385l-5.416,-0.628l-1.232,10.613c-0.09,0.783 -0.34,3.482 -0.34,3.482l-0.063,-0.007c0,0 -0.932,-2.361 -1.203,-3.027l-5.333,-12.009l-5.573,-0.647l-2.597,22.385Z" fill="currentColor"/><path fill-rule="evenodd" clip-rule="evenodd" d="M239.56,29.673c2.672,0.452 5,-0.08 6.845,-2.101l0.062,0.01l-0.142,2.725l3.853,0.653l2.021,-11.933l-9.26,-1.568l-0.684,4.039l4.164,0.706l-0.011,0.062c-0.549,1.921 -2.584,3.558 -5.474,3.068c-3.48,-0.589 -5.083,-3.961 -4.393,-8.032c0.684,-4.04 3.033,-6.774 6.7,-6.153c2.424,0.41 3.684,2.03 3.782,3.901l5.345,0.905c0.075,-4.782 -2.827,-8.406 -8.545,-9.375c-3.201,-0.542 -5.964,0.109 -8.113,1.663c-2.471,1.755 -4.173,4.631 -4.763,8.111c-0.573,3.388 -0.012,6.488 1.557,8.927c1.496,2.299 3.886,3.855 7.056,4.392Z" fill="currentColor"/></g><path d="M0,73.625c52.638,-19.327 109.497,-29.878 168.801,-29.878c57.323,-0 112.362,9.858 163.512,27.971l-1.185,3.255c-50.78,-17.978 -105.42,-27.763 -162.327,-27.763c-58.888,0 -115.348,10.478 -167.616,29.67l-1.185,-3.255Z" fill="#f6fff7"/></svg>