<?xml version="1.0" encoding="UTF-8" standalone="no"?><!DOCTYPE svg PUBLIC "-//W3C//DTD SVG 1.1//EN" "http://www.w3.org/Graphics/SVG/1.1/DTD/svg11.dtd"><svg width="auto" height="auto" viewBox="0 0 333 77" fill="none" xmlns="http://www.w3.org/2000/svg" xmlns:xlink="http://www.w3.org/1999/xlink" xml:space="preserve" xmlns:serif="http://www.serif.com/">
<g><path fill-rule="evenodd" clip-rule="evenodd" d="M50.466,37.533l5.452,-1.319l0.301,-4.255l7.658,-1.852l2.243,3.641l5.698,-1.378l-13.2,-19.992l-5.576,1.348l-2.576,23.807Zm6.068,-9.768l0.403,-5.708c0.094,-1.222 0.141,-3.308 0.141,-3.308l0.061,-0.015c-0,-0 0.964,1.842 1.606,2.886l2.936,4.9l-5.147,1.245Z" fill="currentColor"/><path fill-rule="evenodd" clip-rule="evenodd" d="M76.495,31.52l5.473,-1.081l-3.45,-17.47l6.493,-1.282l-0.915,-4.638l-18.398,3.633l0.916,4.638l6.431,-1.27l3.45,17.47Z" fill="currentColor"/><path fill-rule="evenodd" clip-rule="evenodd" d="M101.32,27.189l5.526,-0.765l-2.443,-17.639l6.556,-0.908l-0.649,-4.683l-18.575,2.573l0.648,4.683l6.494,-0.899l2.443,17.638Z" fill="currentColor"/><path fill-rule="evenodd" clip-rule="evenodd" d="M116.015,25.215l5.557,-0.496l-0.835,-9.354l7.88,-0.703l0.834,9.355l5.557,-0.496l-2.002,-22.445l-5.556,0.495l0.758,8.508l-7.879,0.702l-0.759,-8.507l-5.556,0.495l2.001,22.446Z" fill="currentColor"/><path fill-rule="evenodd" clip-rule="evenodd" d="M138.575,23.314l17.258,-0.692l-0.19,-4.724l-11.683,0.468l-0.193,-4.818l9.856,-0.395l-0.174,-4.346l-9.857,0.395l-0.161,-4.031l11.494,-0.461l-0.184,-4.597l-17.069,0.684l0.903,22.517Z" fill="currentColor"/><path fill-rule="evenodd" clip-rule="evenodd" d="M163.771,22.532l5.578,0.086l0.135,-8.76l9.36,0.145l0.07,-4.506l-9.36,-0.146l0.071,-4.569l11.187,0.174l0.073,-4.696l-16.765,-0.26l-0.349,22.532Z" fill="currentColor"/><path fill-rule="evenodd" clip-rule="evenodd" d="M183.233,22.87l5.568,0.343l0.52,-8.431l3.366,0.208c2.39,0.147 3.39,1.346 3.545,3.439c0.209,2.255 -0.048,4.892 0.528,5.274l5.411,0.334l0.017,-0.283c-0.769,-0.332 -0.28,-3.144 -0.57,-6.13c-0.177,-2.253 -1.108,-3.541 -3.017,-4.322l0.006,-0.095c2.667,-0.751 4.075,-2.59 4.235,-5.201c0.258,-4.184 -2.998,-6.69 -7.465,-6.965l-10.758,-0.663l-1.386,22.492Zm6.342,-12.208l0.341,-5.537l4.309,0.266c2.139,0.131 3.137,1.361 3.036,2.997c-0.104,1.699 -1.301,2.667 -3.503,2.531l-4.183,-0.257Z" fill="currentColor"/><path fill-rule="evenodd" clip-rule="evenodd" d="M204.859,24.361l5.554,0.531l2.143,-22.433l-5.553,-0.53l-2.144,22.432Z" fill="currentColor"/><path fill-rule="evenodd" clip-rule="evenodd" d="M213.967,25.171l5.406,0.715l1.375,-10.404c0.104,-0.782 0.421,-3.664 0.421,-3.664l0.063,0.008c-0,-0 0.9,2.567 1.197,3.21l5.099,11.928l5.561,0.736l2.954,-22.34l-5.405,-0.715l-1.401,10.592c-0.103,0.781 -0.396,3.476 -0.396,3.476l-0.062,-0.008c-0,0 -0.894,-2.375 -1.155,-3.046l-5.141,-12.092l-5.562,-0.736l-2.954,22.34Z" fill="currentColor"/><path fill-rule="evenodd" clip-rule="evenodd" d="M246.219,30.553c2.665,0.496 5.001,0 6.878,-1.991l0.062,0.012l-0.185,2.722l3.842,0.715l2.212,-11.899l-9.234,-1.717l-0.749,4.028l4.152,0.772l-0.011,0.062c-0.58,1.912 -2.641,3.516 -5.523,2.98c-3.47,-0.645 -5.019,-4.042 -4.264,-8.101c0.749,-4.029 3.142,-6.725 6.798,-6.045c2.417,0.449 3.651,2.089 3.72,3.961l5.329,0.991c0.152,-4.78 -2.692,-8.451 -8.393,-9.511c-3.192,-0.593 -5.966,0.013 -8.139,1.532c-2.499,1.715 -4.247,4.564 -4.892,8.034c-0.628,3.378 -0.116,6.487 1.413,8.951c1.459,2.323 3.824,3.916 6.984,4.504Z" fill="currentColor"/><path fill-rule="evenodd" clip-rule="evenodd" d="M259.982,32.738l16.796,4.027l1.102,-4.598l-11.371,-2.726l1.125,-4.689l9.593,2.3l1.014,-4.229l-9.593,-2.3l0.94,-3.923l11.187,2.682l1.073,-4.475l-16.612,-3.983l-5.254,21.914Z" fill="currentColor"/></g><path d="M-0,73.625c52.638,-19.327 109.497,-29.878 168.801,-29.878c57.323,-0 112.362,9.858 163.512,27.971l-1.185,3.255c-50.78,-17.978 -105.42,-27.763 -162.327,-27.763c-58.888,0 -115.348,10.478 -167.616,29.67l-1.185,-3.255Z" fill="#f6fff7"/></svg>