<?xml version="1.0" encoding="UTF-8" standalone="no"?><!DOCTYPE svg PUBLIC "-//W3C//DTD SVG 1.1//EN" "http://www.w3.org/Graphics/SVG/1.1/DTD/svg11.dtd"><svg width="auto" height="auto" viewBox="0 0 333 78" fill="none" xmlns="http://www.w3.org/2000/svg" xmlns:xlink="http://www.w3.org/1999/xlink" xml:space="preserve" xmlns:serif="http://www.serif.com/">
<g><path fill-rule="evenodd" clip-rule="evenodd" d="M131.068,24.003l5.563,-0.417l-1.683,-22.471l-5.563,0.416l1.683,22.472Z" fill="currentColor"/><path fill-rule="evenodd" clip-rule="evenodd" d="M138.759,23.408l4.407,-0.217l7.295,-22.922l-4.407,0.217l-7.295,22.922Z" fill="currentColor"/><path fill-rule="evenodd" clip-rule="evenodd" d="M159.056,22.541l5.484,0.005l2.374,-10.807c0.38,-1.797 0.761,-4.191 0.761,-4.191l0.063,-0c-0,-0 0.376,2.395 0.784,4.192l2.352,10.813l5.453,0.005l6.2,-22.528l-5.61,-0.006l-2.247,9.39c-0.507,2.237 -1.141,5.64 -1.141,5.64l-0.063,0c0,0 -0.564,-3.12 -1.066,-5.422l-2.102,-9.614l-5.168,-0.006l-2.122,9.674c-0.506,2.269 -1.108,5.357 -1.108,5.357l-0.063,-0c-0,-0 -0.533,-3.405 -1.035,-5.58l-2.259,-9.457l-5.642,-0.006l6.155,22.541Z" fill="currentColor"/><path fill-rule="evenodd" clip-rule="evenodd" d="M184.568,22.8l17.243,1.001l0.274,-4.719l-11.674,-0.678l0.28,-4.814l9.848,0.572l0.252,-4.342l-9.848,-0.572l0.234,-4.027l11.484,0.666l0.267,-4.593l-17.054,-0.99l-1.306,22.496Z" fill="currentColor"/></g><path d="M0,74.651c52.638,-19.326 109.497,-29.878 168.801,-29.878c57.323,0 112.362,9.859 163.512,27.971l-1.185,3.255c-50.78,-17.978 -105.42,-27.763 -162.327,-27.763c-58.888,0 -115.348,10.478 -167.616,29.67l-1.185,-3.255Z" fill="#f6fff7"/></svg>