<?xml version="1.0" encoding="UTF-8" standalone="no"?><!DOCTYPE svg PUBLIC "-//W3C//DTD SVG 1.1//EN" "http://www.w3.org/Graphics/SVG/1.1/DTD/svg11.dtd"><svg width="auto" height="auto" viewBox="0 0 333 78" fill="none" xmlns="http://www.w3.org/2000/svg" xmlns:xlink="http://www.w3.org/1999/xlink" xml:space="preserve" xmlns:serif="http://www.serif.com/">
<path d="M-0,74.222c52.638,-19.327 109.497,-29.879 168.801,-29.879c57.323,0 112.362,9.859 163.512,27.971l-1.185,3.255c-50.78,-17.977 -105.42,-27.762 -162.327,-27.762c-58.888,-0 -115.348,10.478 -167.616,29.67l-1.185,-3.255Z" fill="#f6fff7"/>
<g>
<path fill-rule="evenodd" clip-rule="evenodd" d="M99.561,22.072c3.001,-0.388 4.732,-2.632 5.96,-5.232c1.848,2.202 3.98,3.948 6.868,3.575c3.451,-0.446 5.362,-3.362 4.858,-7.263c-0.499,-3.863 -3.089,-6.198 -6.539,-5.753c-2.889,0.373 -4.507,2.604 -5.735,5.203c-1.848,-2.202 -4.093,-3.933 -7.093,-3.546c-3.714,0.48 -5.272,3.77 -4.826,7.221c0.451,3.488 2.756,6.279 6.507,5.795Zm-1.107,-10.344c1.988,-0.257 3.683,1.355 5.107,3.23c-0.91,2.101 -2.136,4.127 -4.124,4.384c-2.063,0.267 -3.144,-1.31 -3.42,-3.448c-0.271,-2.1 0.374,-3.9 2.437,-4.166Zm13.361,6.015c-1.875,0.243 -3.463,-1.421 -4.878,-3.221c0.901,-2.176 2.019,-4.151 3.894,-4.393c2.063,-0.266 3.182,1.305 3.453,3.406c0.276,2.138 -0.406,3.942 -2.469,4.208Z" fill="currentColor"/>
<path fill-rule="evenodd" clip-rule="evenodd" d="M136.513,23.836c2.705,-0.163 4.853,-1.207 6.193,-3.593l0.063,-0.004l0.477,2.687l3.901,-0.235l-0.726,-12.08l-9.375,0.563l0.246,4.09l4.215,-0.253l0.004,0.063c-0.101,1.995 -1.714,4.049 -4.64,4.225c-3.523,0.212 -5.846,-2.711 -6.094,-6.832c-0.246,-4.09 1.425,-7.285 5.137,-7.508c2.454,-0.147 4.048,1.146 4.566,2.946l5.412,-0.325c-1.008,-4.676 -4.654,-7.551 -10.442,-7.203c-3.241,0.195 -5.786,1.453 -7.529,3.453c-2.01,2.267 -3.018,5.454 -2.807,8.977c0.207,3.43 1.454,6.322 3.533,8.345c1.977,1.901 4.657,2.877 7.866,2.684Z" fill="currentColor"/>
<path fill-rule="evenodd" clip-rule="evenodd" d="M148.831,22.628l5.61,-0.038l1.264,-4.074l7.879,-0.053l1.351,4.056l5.863,-0.039l-8.283,-22.479l-5.736,0.038l-7.948,22.589Zm8.14,-8.124l1.696,-5.464c0.371,-1.168 0.893,-3.189 0.893,-3.189l0.063,-0c0,-0 0.518,2.013 0.904,3.177l1.738,5.441l-5.294,0.035Z" fill="currentColor"/>
<path fill-rule="evenodd" clip-rule="evenodd" d="M172.863,22.507l5.006,0.248l0.559,-11.301c0.045,-0.913 0.13,-4.537 0.13,-4.537l0.063,0.003c-0,-0 0.618,3.438 0.83,4.269l2.636,11.775l4.595,0.227l3.819,-11.486c0.293,-0.806 1.246,-4.136 1.246,-4.136l0.063,0.004c0,-0 -0.272,3.583 -0.317,4.496l-0.561,11.332l5.1,0.253l1.114,-22.507l-7.555,-0.374l-3.258,9.715c-0.448,1.398 -1.513,5.069 -1.513,5.069l-0.063,-0.003c-0,0 -0.698,-3.758 -1.037,-5.195l-2.251,-9.988l-7.491,-0.371l-1.115,22.507Z" fill="currentColor"/>
<path fill-rule="evenodd" clip-rule="evenodd" d="M199.651,24.013l17.178,1.789l0.49,-4.703l-11.63,-1.211l0.5,-4.796l9.811,1.022l0.451,-4.326l-9.812,-1.022l0.418,-4.012l11.442,1.191l0.476,-4.576l-16.99,-1.77l-2.334,22.414Z" fill="currentColor"/>
<path fill-rule="evenodd" clip-rule="evenodd" d="M228.443,28.026c5.143,0.774 9.521,-1.213 10.224,-5.888c0.717,-4.769 -2.831,-6.609 -6.831,-8.199c-3.222,-1.249 -4.88,-1.881 -4.646,-3.439c0.188,-1.247 1.592,-1.896 3.524,-1.606c2.057,0.31 3.221,1.473 3.182,3.22l5.391,0.81c0.485,-4.707 -2.927,-7.451 -7.758,-8.178c-4.986,-0.75 -9.165,0.757 -9.882,5.526c-0.703,4.675 3.202,6.473 6.931,7.958c2.941,1.207 4.693,1.853 4.426,3.63c-0.253,1.683 -2.128,2.07 -3.936,1.798c-2.649,-0.398 -3.973,-1.553 -3.885,-3.835l-5.548,-0.834c-0.616,4.943 2.886,8.147 8.808,9.037Z" fill="currentColor"/>
</g>
</svg>