<?xml version="1.0" encoding="UTF-8" standalone="no"?><!DOCTYPE svg PUBLIC "-//W3C//DTD SVG 1.1//EN" "http://www.w3.org/Graphics/SVG/1.1/DTD/svg11.dtd"><svg width="auto" height="auto" viewBox="0 0 333 79" fill="none" xmlns="http://www.w3.org/2000/svg" xmlns:xlink="http://www.w3.org/1999/xlink" xml:space="preserve" xmlns:serif="http://www.serif.com/" style="fill-rule:evenodd;clip-rule:evenodd;stroke-linejoin:round;stroke-miterlimit:2;"><path d="M0,74.819c52.638,-19.327 109.497,-29.878 168.801,-29.878c57.323,-0 112.362,9.858 163.512,27.97l-1.185,3.256c-50.78,-17.978 -105.42,-27.763 -162.327,-27.763c-58.888,-0 -115.348,10.478 -167.616,29.67l-1.185,-3.255Z" style="fill:none;"/><g><path d="M53.404,40.501l4.189,-1.046c-2.491,-2.952 -5.081,-6.561 -6.47,-12.126c-1.496,-5.993 -1.128,-10.503 -0.186,-14.539l-4.22,1.054c-1.347,3.714 -1.968,8.904 -0.517,14.714c1.381,5.535 4.292,9.258 7.204,11.943Z" style="fill:currentColor;fill-rule:nonzero;"/><path d="M59.375,35.969l5.44,-1.234l-4.982,-21.977l-5.441,1.234l4.983,21.977Z" style="fill:currentColor;fill-rule:nonzero;"/><path d="M68.354,33.872l5.358,-1.011l-1.945,-10.313c-0.147,-0.774 -0.746,-3.612 -0.746,-3.612l0.062,-0.011c-0,-0 1.658,2.157 2.14,2.675l8.573,9.736l5.512,-1.04l-4.178,-22.144l-5.357,1.011l1.98,10.499c0.146,0.775 0.711,3.426 0.711,3.426l-0.062,0.012c0,-0 -1.592,-1.977 -2.049,-2.532l-8.664,-9.88l-5.513,1.04l4.178,22.144Z" style="fill:currentColor;fill-rule:nonzero;"/><path d="M96.314,28.994l5.526,-0.764l-2.439,-17.639l6.557,-0.906l-0.648,-4.683l-18.576,2.568l0.648,4.683l6.494,-0.898l2.438,17.639Z" style="fill:currentColor;fill-rule:nonzero;"/><path d="M110.96,27.048l17.2,-1.56l-0.427,-4.708l-11.645,1.056l-0.435,-4.802l9.824,-0.891l-0.392,-4.332l-9.825,0.891l-0.364,-4.018l11.457,-1.039l-0.416,-4.582l-17.012,1.542l2.035,22.443Z" style="fill:currentColor;fill-rule:nonzero;"/><path d="M131.206,25.266l5.573,-0.235l-0.355,-8.439l3.369,-0.142c2.393,-0.101 3.512,0.987 3.883,3.054c0.44,2.221 0.457,4.87 1.07,5.191l5.416,-0.228l-0.012,-0.283c-0.799,-0.251 -0.603,-3.098 -1.2,-6.038c-0.41,-2.222 -1.469,-3.408 -3.449,-3.987l-0.004,-0.095c2.575,-1.023 3.785,-2.998 3.675,-5.612c-0.176,-4.188 -3.674,-6.343 -8.145,-6.155l-10.77,0.454l0.949,22.515Zm5.044,-12.799l-0.233,-5.542l4.314,-0.182c2.141,-0.09 3.261,1.03 3.33,2.667c0.071,1.7 -1.019,2.787 -3.223,2.88l-4.188,0.177Z" style="fill:currentColor;fill-rule:nonzero;"/><path d="M151.842,27.513l4.318,-0.031c2.214,-3.388 4.04,-8.16 3.998,-14.085c-0.041,-5.767 -2.026,-10.197 -4.161,-13.397l-4.349,0.031c1.789,3.391 3.394,7.477 3.436,13.402c0.042,5.988 -1.44,10.316 -3.242,14.08Z" style="fill:currentColor;fill-rule:nonzero;"/><path d="M164.089,24.426l5.576,0.17l0.267,-8.758l9.356,0.285l0.137,-4.505l-9.356,-0.285l0.139,-4.567l11.183,0.34l0.143,-4.694l-16.759,-0.51l-0.686,22.524Z" style="fill:currentColor;fill-rule:nonzero;"/><path d="M179.94,24.835l5.595,0.406l1.583,-3.961l7.859,0.57l1.026,4.151l5.847,0.424l-6.479,-23.064l-5.721,-0.415l-9.71,21.889Zm8.757,-7.454l2.124,-5.312c0.461,-1.136 1.142,-3.109 1.142,-3.109l0.063,0.004c-0,0 0.356,2.049 0.649,3.239l1.303,5.561l-5.281,-0.383Z" style="fill:currentColor;fill-rule:nonzero;"/><path d="M212.583,28.254c3.16,0.383 5.551,-0.216 7.473,-1.665c1.711,-1.284 2.959,-3.196 3.385,-5.399l-5.537,-0.672c-0.513,2.128 -2.33,3.495 -4.801,3.195c-3.317,-0.402 -5.021,-3.625 -4.523,-7.724c0.493,-4.067 2.582,-6.893 6.212,-6.453c2.378,0.289 3.756,2.012 3.794,4.048l5.538,0.673c0.023,-2.538 -0.838,-4.864 -2.599,-6.57c-1.448,-1.414 -3.547,-2.431 -6.144,-2.746c-6.664,-0.809 -11.624,3.7 -12.433,10.365c-0.813,6.695 3.065,12.15 9.635,12.948Z" style="fill:currentColor;fill-rule:nonzero;"/><path d="M224.985,29.437l5.51,0.871l3.517,-22.259l-5.51,-0.871l-3.517,22.259Z" style="fill:currentColor;fill-rule:nonzero;"/><path d="M234.06,30.811l5.351,1.046l2.013,-10.3c0.152,-0.773 0.646,-3.631 0.646,-3.631l0.062,0.012c-0,0 0.741,2.618 0.997,3.278l4.355,12.219l5.506,1.077l4.323,-22.116l-5.351,-1.046l-2.05,10.485c-0.151,0.774 -0.609,3.446 -0.609,3.446l-0.062,-0.012c0,-0 -0.746,-2.426 -0.965,-3.111l-4.387,-12.386l-5.506,-1.077l-4.323,22.116Z" style="fill:currentColor;fill-rule:nonzero;"/><path d="M265.947,38.172c2.629,0.658 4.991,0.307 6.987,-1.565l0.061,0.015l-0.353,2.706l3.792,0.949l2.938,-11.741l-9.111,-2.28l-0.995,3.975l4.097,1.025l-0.015,0.061c-0.696,1.873 -2.852,3.347 -5.696,2.636c-3.424,-0.857 -4.761,-4.343 -3.759,-8.348c0.995,-3.975 3.549,-6.52 7.156,-5.617c2.385,0.597 3.516,2.309 3.47,4.182l5.259,1.316c0.444,-4.762 -2.169,-8.6 -7.795,-10.008c-3.149,-0.788 -5.955,-0.353 -8.217,1.03c-2.6,1.559 -4.519,4.295 -5.376,7.72c-0.834,3.332 -0.514,6.466 0.862,9.02c1.314,2.408 3.576,4.144 6.695,4.924Z" style="fill:currentColor;fill-rule:nonzero;"/></g></svg>