<?xml version="1.0" encoding="UTF-8" standalone="no"?><!DOCTYPE svg PUBLIC "-//W3C//DTD SVG 1.1//EN" "http://www.w3.org/Graphics/SVG/1.1/DTD/svg11.dtd"><svg width="auto" height="auto" viewBox="0 0 333 80" fill="none" xmlns="http://www.w3.org/2000/svg" xmlns:xlink="http://www.w3.org/1999/xlink" xml:space="preserve" xmlns:serif="http://www.serif.com/" style="fill-rule:evenodd;clip-rule:evenodd;stroke-linejoin:round;stroke-miterlimit:2;"><g><path d="M51.103,39.498l5.395,-1.42l-5.736,-21.793l-5.395,1.42l5.736,21.793Z" style="fill:currentColor;"/><path d="M60,37.095l5.32,-1.195l-2.3,-10.24c-0.173,-0.768 -0.87,-3.584 -0.87,-3.584l0.062,-0.014c-0,0 1.731,2.099 2.231,2.6l8.903,9.435l5.474,-1.229l-4.94,-21.987l-5.319,1.195l2.341,10.425c0.173,0.768 0.829,3.399 0.829,3.399l-0.062,0.014c0,-0 -1.659,-1.921 -2.135,-2.46l-8.999,-9.575l-5.474,1.23l4.939,21.986Z" style="fill:currentColor;"/><path d="M87.786,31.253l5.496,-0.954l-3.047,-17.545l6.521,-1.132l-0.808,-4.658l-18.476,3.209l0.808,4.657l6.459,-1.121l3.047,17.544Z" style="fill:currentColor;"/><path d="M102.354,28.802l17.136,-2.154l-0.589,-4.69l-11.602,1.458l-0.601,-4.785l9.788,-1.23l-0.543,-4.315l-9.788,1.23l-0.503,-4.003l11.414,-1.434l-0.574,-4.566l-16.948,2.13l2.81,22.359Z" style="fill:currentColor;"/><path d="M122.555,26.317l5.562,-0.427l-0.646,-8.421l3.362,-0.259c2.388,-0.183 3.544,0.866 3.986,2.918c0.517,2.205 0.625,4.852 1.249,5.152l5.405,-0.415l-0.022,-0.283c-0.807,-0.223 -0.71,-3.075 -1.408,-5.993c-0.486,-2.207 -1.586,-3.355 -3.585,-3.865l-0.007,-0.095c2.538,-1.111 3.68,-3.127 3.479,-5.735c-0.321,-4.18 -3.891,-6.213 -8.353,-5.87l-10.747,0.825l1.725,22.468Zm4.6,-12.965l-0.425,-5.531l4.305,-0.33c2.137,-0.164 3.295,0.916 3.42,2.55c0.13,1.697 -0.921,2.821 -3.121,2.99l-4.179,0.321Z" style="fill:currentColor;"/><path d="M148.611,27.629l4.315,-0.167c-1.835,-3.398 -3.632,-7.46 -3.854,-13.192c-0.239,-6.173 1.044,-10.512 2.791,-14.27l-4.347,0.168c-2.077,3.361 -3.746,8.314 -3.515,14.298c0.221,5.7 2.309,9.941 4.61,13.163Z" style="fill:currentColor;"/><path d="M155.363,24.343l5.579,-0.023l-0.037,-8.761l9.361,-0.039l-0.019,-4.507l-9.36,0.039l-0.019,-4.57l11.188,-0.046l-0.019,-4.696l-16.767,0.069l0.093,22.534Z" style="fill:currentColor;"/><path d="M171.259,24.205l5.606,0.213l1.446,-4.014l7.874,0.3l1.168,4.113l5.858,0.223l-7.269,-22.828l-5.732,-0.218l-8.951,22.211Zm8.495,-7.751l1.94,-5.383c0.422,-1.151 1.034,-3.146 1.034,-3.146l0.063,0.002c0,0 0.427,2.035 0.761,3.215l1.493,5.513l-5.291,-0.201Z" style="fill:currentColor;"/><path d="M203.968,26.495c3.171,0.274 5.539,-0.407 7.41,-1.921c1.667,-1.343 2.848,-3.297 3.198,-5.513l-5.558,-0.481c-0.438,2.145 -2.207,3.574 -4.688,3.359c-3.328,-0.288 -5.142,-3.45 -4.786,-7.564c0.353,-4.082 2.344,-6.978 5.986,-6.663c2.386,0.207 3.823,1.881 3.932,3.915l5.558,0.481c-0.066,-2.536 -1.006,-4.832 -2.825,-6.476c-1.495,-1.363 -3.628,-2.307 -6.234,-2.533c-6.688,-0.578 -11.49,4.099 -12.069,10.787c-0.582,6.72 3.482,12.038 10.076,12.609Z" style="fill:currentColor;"/><path d="M216.428,27.253l5.537,0.681l2.75,-22.366l-5.537,-0.681l-2.75,22.366Z" style="fill:currentColor;"/><path d="M225.495,28.308l5.384,0.861l1.657,-10.364c0.125,-0.778 0.52,-3.651 0.52,-3.651l0.063,0.01c-0,0 0.83,2.591 1.109,3.242l4.773,12.062l5.54,0.886l3.559,-22.252l-5.384,-0.861l-1.688,10.55c-0.124,0.778 -0.49,3.465 -0.49,3.465l-0.062,-0.01c-0,-0 -0.829,-2.399 -1.072,-3.076l-4.811,-12.228l-5.539,-0.886l-3.559,22.252Z" style="fill:currentColor;"/><path d="M257.606,34.565c2.65,0.567 4.999,0.135 6.929,-1.805l0.061,0.013l-0.259,2.717l3.822,0.817l2.532,-11.834l-9.184,-1.965l-0.857,4.006l4.13,0.884l-0.013,0.061c-0.632,1.896 -2.736,3.444 -5.602,2.831c-3.452,-0.739 -4.908,-4.177 -4.044,-8.214c0.858,-4.007 3.322,-6.638 6.959,-5.86c2.404,0.515 3.593,2.187 3.611,4.06l5.301,1.135c0.281,-4.775 -2.463,-8.52 -8.134,-9.734c-3.174,-0.679 -5.963,-0.148 -8.177,1.312c-2.544,1.647 -4.368,4.448 -5.107,7.9c-0.719,3.359 -0.291,6.48 1.171,8.985c1.397,2.361 3.717,4.018 6.861,4.691Z" style="fill:currentColor;"/><path d="M269.543,39.835l4.184,1.066c3.001,-2.715 5.978,-6.868 7.441,-12.61c1.424,-5.589 0.628,-10.377 -0.625,-14.014l-4.215,-1.074c0.87,3.734 1.386,8.094 -0.077,13.836c-1.478,5.803 -4.01,9.613 -6.708,12.796Z" style="fill:currentColor;"/></g><path d="M0,75.819c52.638,-19.327 109.497,-29.878 168.801,-29.878c57.323,-0 112.362,9.858 163.512,27.97l-1.185,3.256c-50.78,-17.978 -105.42,-27.763 -162.327,-27.763c-58.888,-0 -115.348,10.478 -167.616,29.67l-1.185,-3.255Z" style="fill:#f6fff7;"/></svg>