<?xml version="1.0" encoding="UTF-8" standalone="no"?><!DOCTYPE svg PUBLIC "-//W3C//DTD SVG 1.1//EN" "http://www.w3.org/Graphics/SVG/1.1/DTD/svg11.dtd"><svg width="auto" height="auto" viewBox="0 0 333 78" fill="none" xmlns="http://www.w3.org/2000/svg" xmlns:xlink="http://www.w3.org/1999/xlink" xml:space="preserve" xmlns:serif="http://www.serif.com/" style="fill-rule:evenodd;clip-rule:evenodd;stroke-linejoin:round;stroke-miterlimit:2;"><g><path d="M117.703,25.272l15.625,-1.48l-0.446,-4.707l-10.072,0.955l-1.679,-17.728l-5.554,0.526l2.126,22.434Z" style="fill:currentColor;fill-rule:evenodd;clip-rule:evenodd;"/><path d="M134.698,23.622l5.604,-0.275l1.091,-4.124l7.87,-0.386l1.521,3.996l5.855,-0.287l-9.225,-22.109l-5.73,0.281l-6.986,22.904Zm7.79,-8.46l1.464,-5.531c0.32,-1.183 0.757,-3.224 0.757,-3.224l0.063,-0.003c-0,0 0.602,1.99 1.037,3.136l1.967,5.363l-5.288,0.259Z" style="fill:currentColor;fill-rule:evenodd;clip-rule:evenodd;"/><path d="M158.744,22.535l11.126,0.015c2.364,0.003 4.224,-0.562 5.549,-1.6c1.483,-1.133 2.304,-2.771 2.307,-5.04c0.004,-2.679 -1.569,-4.761 -4.026,-5.521l-0,-0.094c1.986,-0.754 3.155,-2.171 3.158,-4.408c0.002,-1.797 -0.658,-3.248 -1.949,-4.321c-1.196,-0.979 -2.929,-1.548 -5.261,-1.551l-10.873,-0.015l-0.031,22.535Zm5.522,-4.468l0.007,-5.358l4.917,0.006c1.702,0.003 3.024,0.918 3.022,2.715c-0.003,1.607 -1.139,2.646 -2.966,2.643l-4.98,-0.006Zm0.012,-9.14l0.006,-4.507l4.57,0.006c1.639,0.002 2.678,0.823 2.676,2.241c-0.002,1.482 -1.106,2.268 -2.713,2.266l-4.539,-0.006Z" style="fill:currentColor;fill-rule:evenodd;clip-rule:evenodd;"/><path d="M180.377,22.644l17.251,0.824l0.226,-4.722l-11.68,-0.558l0.23,-4.816l9.854,0.47l0.207,-4.344l-9.853,-0.471l0.192,-4.029l11.491,0.549l0.219,-4.597l-17.063,-0.815l-1.074,22.509Z" style="fill:currentColor;fill-rule:evenodd;clip-rule:evenodd;"/><path d="M200.674,23.698l15.629,1.436l0.433,-4.707l-10.074,-0.926l1.63,-17.733l-5.556,-0.51l-2.062,22.44Z" style="fill:currentColor;fill-rule:evenodd;clip-rule:evenodd;"/></g><path d="M0,74.651c52.638,-19.326 109.497,-29.878 168.801,-29.878c57.323,0 112.362,9.859 163.512,27.971l-1.185,3.255c-50.78,-17.978 -105.42,-27.763 -162.327,-27.763c-58.888,0 -115.348,10.478 -167.616,29.67l-1.185,-3.255Z" style="fill:#f6fff7;"/></svg>