<svg width="auto" height="auto" viewBox="0 0 30 63" fill="none" xmlns="http://www.w3.org/2000/svg">
<path fill-rule="evenodd" clip-rule="evenodd" d="M5.10782 13.5817H23.1865V3.30916C23.1865 1.49404 24.6716 0.0195312 26.5017 0.0195312C28.3305 0.0195312 29.8155 1.49404 29.8155 3.30916V13.7111C29.8155 19.9311 26.9527 25.9189 21.7689 30.3167L18.9419 32.7151C21.3936 35.0634 23.3612 37.7195 24.7939 40.5671C25.0277 40.7257 25.1817 40.9917 25.1817 41.2938C25.1817 41.3172 25.1817 41.3416 25.179 41.365C25.6066 42.29 25.9792 43.2337 26.2941 44.1915C27.1315 46.738 27.566 49.3884 27.566 52.0784V54.5258C27.566 55.676 26.6255 56.6092 25.4663 56.6092C24.3086 56.6092 23.3681 55.676 23.3681 54.5258V52.0784C23.3681 50.9784 23.2801 49.8865 23.1096 48.8086H7.65022C7.45634 49.9215 7.35741 51.0507 7.35741 52.1892V59.3027C7.35741 61.1179 5.87234 62.5924 4.04357 62.5924C2.21343 62.5924 0.728394 61.1179 0.728394 59.3027V52.1892C0.728394 44.1133 4.46163 36.3454 11.1923 30.634L17.461 25.3158C18.6504 24.3067 19.6748 23.1834 20.5149 21.9737H7.13879C7.82079 22.9827 8.66224 23.9195 9.64812 24.7559C10.5281 25.5025 10.6327 26.8183 9.87917 27.692C9.12703 28.5658 7.80009 28.6696 6.92008 27.9218C3.05078 24.6404 0.908579 20.1737 0.908579 15.5333V7.86447C0.908579 6.71427 1.84906 5.78103 3.0082 5.78103C4.16734 5.78103 5.10782 6.71427 5.10782 7.86447V13.5817ZM6.19548 20.3195C6.31923 20.2554 6.45812 20.2192 6.60662 20.2192H21.5723C22.3698 18.6759 22.8868 17.0299 23.0903 15.3349H5.10782V15.5333C5.10782 17.1897 5.48597 18.8112 6.19548 20.3195ZM15.734 35.4366L15.5003 35.635C13.7994 37.0768 12.3391 38.6866 11.1428 40.4166H19.8961C18.7631 38.6294 17.3675 36.9566 15.734 35.4366ZM10.0442 42.171C9.1669 43.7284 8.49176 45.3662 8.03938 47.0553H22.7548C22.6242 46.5269 22.4743 46.0031 22.3038 45.484C21.9312 44.3513 21.4637 43.2442 20.9068 42.171H10.0442Z" fill="currentColor"/>
</svg>