<?xml version="1.0" encoding="UTF-8" standalone="no"?><!DOCTYPE svg PUBLIC "-//W3C//DTD SVG 1.1//EN" "http://www.w3.org/Graphics/SVG/1.1/DTD/svg11.dtd"><svg width="auto" height="auto" viewBox="0 0 333 79" fill="none" xmlns="http://www.w3.org/2000/svg" xmlns:xlink="http://www.w3.org/1999/xlink" xml:space="preserve" xmlns:serif="http://www.serif.com/" style="fill-rule:evenodd;clip-rule:evenodd;stroke-linejoin:round;stroke-miterlimit:2;"><g><path d="M127.634,24.365l5.663,-0.351l-0.467,-7.518l5.253,-0.327c4.624,-0.287 7.423,-3.524 7.155,-7.833c-0.14,-2.265 -1.077,-4.133 -2.608,-5.396c-1.466,-1.235 -3.526,-1.865 -6.263,-1.695l-10.129,0.629l1.396,22.491Zm4.922,-12.273l-0.365,-5.883l4.121,-0.256c1.982,-0.123 3.214,0.906 3.325,2.699c0.112,1.793 -0.947,3.059 -2.96,3.184l-4.121,0.256Z" style="fill:currentColor;fill-rule:evenodd;clip-rule:evenodd;"/><path d="M159.144,18.973c-3.624,0.04 -5.518,-3.059 -5.564,-7.156c-0.045,-4.097 1.779,-7.27 5.403,-7.31c3.656,-0.041 5.487,3.091 5.533,7.188c0.046,4.097 -1.716,7.237 -5.372,7.278Zm0.019,4.538c6.839,-0.076 11.101,-5.135 11.026,-11.879c-0.075,-6.744 -4.449,-11.707 -11.287,-11.631c-6.808,0.076 -11.069,5.135 -10.994,11.879c0.075,6.744 4.448,11.707 11.255,11.631Z" style="fill:currentColor;fill-rule:evenodd;clip-rule:evenodd;"/><path d="M176.668,23.045l5.478,0.265l2.884,-10.683c0.465,-1.776 0.959,-4.15 0.959,-4.15l0.063,0.003c-0,-0 0.261,2.411 0.584,4.225l1.837,10.912l5.446,0.264l7.261,-22.209l-5.603,-0.272l-2.69,9.273c-0.612,2.211 -1.406,5.58 -1.406,5.58l-0.063,-0.003c-0,-0 -0.416,-3.144 -0.808,-5.466l-1.644,-9.704l-5.162,-0.25l-2.578,9.562c-0.614,2.242 -1.362,5.298 -1.362,5.298l-0.062,-0.003c-0,-0 -0.371,-3.426 -0.769,-5.623l-1.809,-9.553l-5.635,-0.274l5.079,22.808Z" style="fill:currentColor;fill-rule:evenodd;clip-rule:evenodd;"/><path d="M203.84,17.349l2.636,0.244l2.224,-9.67l0.49,-5.303l-5.272,-0.488l-0.491,5.304l0.413,9.913Zm-2.029,7.219l5.335,0.493l0.488,-5.272l-5.335,-0.493l-0.488,5.272Z" style="fill:currentColor;fill-rule:evenodd;clip-rule:evenodd;"/></g><path d="M0,75.181c52.638,-19.327 109.497,-29.879 168.801,-29.879c57.323,0 112.362,9.859 163.512,27.971l-1.185,3.255c-50.78,-17.978 -105.42,-27.762 -162.327,-27.762c-58.888,-0 -115.348,10.478 -167.616,29.67l-1.185,-3.255Z" style="fill:#f6fff7;"/></svg>