<?xml version="1.0" encoding="UTF-8" standalone="no"?><!DOCTYPE svg PUBLIC "-//W3C//DTD SVG 1.1//EN" "http://www.w3.org/Graphics/SVG/1.1/DTD/svg11.dtd"><svg width="100%" height="100%" viewBox="0 0 333 77" version="1.1" xmlns="http://www.w3.org/2000/svg" xmlns:xlink="http://www.w3.org/1999/xlink" xml:space="preserve" xmlns:serif="http://www.serif.com/" style="fill-rule:evenodd;clip-rule:evenodd;stroke-linejoin:round;stroke-miterlimit:2;"><path d="M-0,73.625c52.638,-19.327 109.497,-29.878 168.801,-29.878c57.323,-0 112.362,9.858 163.512,27.971l-1.185,3.255c-50.78,-17.978 -105.42,-27.763 -162.327,-27.763c-58.888,0 -115.348,10.478 -167.616,29.67l-1.185,-3.255Z" style="fill:#f6fff7;"/><g style="fill:currentColor;"><path d="M71.736,31.748l5.577,-1.039l-1.379,-7.405l5.174,-0.964c4.555,-0.848 6.938,-4.402 6.148,-8.647c-0.416,-2.231 -1.573,-3.971 -3.247,-5.038c-1.605,-1.047 -3.727,-1.421 -6.423,-0.919l-9.976,1.858l4.126,22.154Zm3.39,-12.782l-1.079,-5.794l4.058,-0.756c1.952,-0.364 3.301,0.507 3.63,2.273c0.329,1.766 -0.567,3.152 -2.55,3.521l-4.059,0.756Z"/><path d="M92.478,27.941l5.527,-0.754l-1.143,-8.369l3.342,-0.456c2.373,-0.324 3.588,0.655 4.151,2.678c0.646,2.17 0.91,4.806 1.55,5.068l5.372,-0.733l-0.039,-0.281c-0.819,-0.175 -0.89,-3.028 -1.759,-5.899c-0.615,-2.175 -1.781,-3.256 -3.807,-3.647l-0.012,-0.094c2.468,-1.26 3.488,-3.339 3.134,-5.931c-0.567,-4.153 -4.25,-5.972 -8.685,-5.367l-10.679,1.458l3.048,22.327Zm3.826,-13.214l-0.75,-5.496l4.278,-0.584c2.123,-0.29 3.343,0.721 3.564,2.344c0.231,1.687 -0.753,2.871 -2.939,3.169l-4.153,0.567Z"/><path d="M123.795,20.209c-3.611,0.306 -5.728,-2.646 -6.074,-6.728c-0.346,-4.083 1.24,-7.381 4.852,-7.687c3.642,-0.309 5.699,2.68 6.045,6.762c0.346,4.083 -1.18,7.344 -4.823,7.653Zm0.352,4.524c6.815,-0.578 10.694,-5.936 10.124,-12.656c-0.57,-6.721 -5.296,-11.349 -12.111,-10.771c-6.783,0.575 -10.662,5.934 -10.092,12.654c0.57,6.721 5.296,11.349 12.079,10.773Z"/><path d="M143.291,18.273l-0.399,-13.169l3.339,-0.101c3.497,-0.106 5.562,2.48 5.686,6.576c0.125,4.127 -1.696,6.484 -5.35,6.594l-3.276,0.1Zm-5.434,4.862l9.262,-0.28c2.835,-0.086 5.081,-0.879 6.805,-2.256c2.462,-1.998 3.752,-5.222 3.632,-9.191c-0.209,-6.899 -4.536,-11.277 -10.773,-11.088l-9.608,0.291l0.682,22.524Z"/><path d="M169.892,23.128c6.271,0.125 9.453,-2.964 9.557,-8.164l0.29,-14.589l-5.577,-0.111l-0.293,14.684c-0.043,2.206 -1.304,3.757 -3.888,3.705c-2.741,-0.054 -3.846,-1.558 -3.802,-3.763l0.294,-14.779l-5.577,-0.111l-0.291,14.589c-0.104,5.263 2.985,8.414 9.287,8.539Z"/><path d="M192.89,24.286c3.175,0.226 5.533,-0.49 7.381,-2.033c1.645,-1.368 2.797,-3.34 3.113,-5.561l-5.564,-0.396c-0.406,2.151 -2.153,3.607 -4.637,3.43c-3.332,-0.238 -5.194,-3.372 -4.901,-7.49c0.291,-4.087 2.238,-7.014 5.884,-6.754c2.39,0.17 3.852,1.823 3.991,3.855l5.565,0.396c-0.104,-2.535 -1.079,-4.816 -2.923,-6.432c-1.516,-1.341 -3.663,-2.252 -6.272,-2.438c-6.696,-0.477 -11.426,4.273 -11.903,10.969c-0.48,6.728 3.664,11.984 10.266,12.454Z"/><path d="M205.313,24.851l5.547,0.596l2.409,-22.406l-5.547,-0.596l-2.409,22.406Z"/><path d="M214.418,25.77l5.397,0.779l1.5,-10.387c0.113,-0.78 0.465,-3.659 0.465,-3.659l0.062,0.009c0,0 0.87,2.578 1.159,3.224l4.955,11.989l5.553,0.802l3.221,-22.303l-5.397,-0.78l-1.527,10.575c-0.112,0.78 -0.437,3.471 -0.437,3.471l-0.063,-0.009c0,0 -0.865,-2.386 -1.118,-3.059l-4.996,-12.154l-5.552,-0.802l-3.222,22.304Z"/><path d="M246.612,31.538c2.659,0.527 5.001,0.059 6.901,-1.909l0.062,0.012l-0.218,2.72l3.833,0.76l2.354,-11.872l-9.213,-1.826l-0.797,4.019l4.143,0.821l-0.012,0.062c-0.603,1.905 -2.683,3.485 -5.558,2.915c-3.463,-0.687 -4.971,-4.102 -4.168,-8.152c0.797,-4.019 3.221,-6.687 6.869,-5.964c2.412,0.478 3.626,2.132 3.673,4.005l5.317,1.054c0.208,-4.778 -2.592,-8.482 -8.28,-9.61c-3.185,-0.631 -5.965,-0.057 -8.157,1.436c-2.519,1.685 -4.3,4.513 -4.987,7.976c-0.668,3.369 -0.192,6.484 1.308,8.966c1.431,2.34 3.777,3.962 6.93,4.587Z"/></g></svg>