<?xml version="1.0" encoding="UTF-8" standalone="no"?><!DOCTYPE svg PUBLIC "-//W3C//DTD SVG 1.1//EN" "http://www.w3.org/Graphics/SVG/1.1/DTD/svg11.dtd"><svg width="100%" height="100%" viewBox="0 0 13 122" version="1.1" xmlns="http://www.w3.org/2000/svg" xmlns:xlink="http://www.w3.org/1999/xlink" xml:space="preserve" xmlns:serif="http://www.serif.com/" style="fill-rule:evenodd;clip-rule:evenodd;stroke-linejoin:round;stroke-miterlimit:2;"><path d="M0.227,121.09l0,-2.341c0,-1.555 0.53,-2.802 1.588,-3.739c1.058,-0.938 2.511,-1.407 4.358,-1.407c1.886,0 3.347,0.476 4.383,1.428c1.036,0.951 1.554,2.171 1.554,3.659l-0,2.4l-11.883,-0Zm10.679,-1.381l-0,-0.977c-0,-1.128 -0.419,-2.021 -1.255,-2.678c-0.837,-0.657 -1.996,-0.985 -3.478,-0.985c-1.471,-0 -2.629,0.33 -3.474,0.989c-0.845,0.66 -1.267,1.551 -1.267,2.674l-0,0.977l9.474,-0Z" style="fill:#55766c;fill-rule:nonzero;"/><path d="M12.11,102.614l-0,1.726l-5.398,3.486l-0,1.533l5.398,0l-0,1.381l-11.883,0l0,-3.36c0,-1.128 0.274,-2.02 0.821,-2.674c0.548,-0.654 1.31,-0.981 2.287,-0.981c0.724,0 1.368,0.239 1.933,0.716c0.564,0.477 0.947,1.134 1.149,1.971l5.693,-3.798Zm-6.602,6.745l-0,-1.743c-0,-0.73 -0.198,-1.322 -0.594,-1.777c-0.396,-0.455 -0.894,-0.682 -1.495,-0.682c-1.325,-0 -1.987,0.808 -1.987,2.425l-0,1.777l4.076,0Z" style="fill:#55766c;fill-rule:nonzero;"/><path d="M12.11,93.788l-0,6.207l-11.883,-0l0,-6.156l1.205,-0l-0,4.774l3.68,0l-0,-4.589l1.204,-0l-0,4.589l4.59,0l-0,-4.825l1.204,0Z" style="fill:#55766c;fill-rule:nonzero;"/><path d="M12.11,81.897l-0,1.449l-4.16,1.313l-0,3.899l4.16,1.331l-0,1.432l-11.883,-3.883l0,-1.659l11.883,-3.882Zm-5.365,3.158l-4.918,1.558l4.918,1.55l0,-3.108Z" style="fill:#55766c;fill-rule:nonzero;"/><path d="M12.11,72.448l-0,1.331l-10.19,0l4.876,1.794l-0,1.305l-4.876,1.794l10.19,-0l-0,1.33l-11.883,0l0,-1.793l5.415,-1.988l-5.415,-1.979l0,-1.794l11.883,0Z" style="fill:#55766c;fill-rule:nonzero;"/><path d="M11.369,62.082c0.645,0.932 0.968,2.013 0.968,3.242c0,1.538 -0.528,2.708 -1.583,3.508c-1.055,0.8 -2.583,1.2 -4.581,1.2c-1.931,-0 -3.443,-0.388 -4.535,-1.163c-1.092,-0.774 -1.638,-1.956 -1.638,-3.545c0,-0.573 0.073,-1.14 0.219,-1.701c0.146,-0.561 0.34,-1.013 0.581,-1.356l1.086,0.455c-0.449,0.791 -0.673,1.659 -0.673,2.602c-0,1.095 0.397,1.909 1.191,2.442c0.795,0.534 2.051,0.8 3.769,0.8c3.301,0 4.952,-1.08 4.952,-3.242c-0,-0.915 -0.281,-1.853 -0.843,-2.813l1.087,-0.429Z" style="fill:#55766c;fill-rule:nonzero;"/><path d="M12.11,50.848l-0,1.448l-4.16,1.314l-0,3.899l4.16,1.331l-0,1.431l-11.883,-3.882l0,-1.659l11.883,-3.882Zm-5.365,3.158l-4.918,1.558l4.918,1.549l0,-3.107Z" style="fill:#55766c;fill-rule:nonzero;"/><path d="M1.541,42.696c-0.241,0.707 -0.362,1.378 -0.362,2.013c-0,0.718 0.164,1.304 0.493,1.756c0.328,0.451 0.795,0.677 1.402,0.677c0.718,0 1.35,-0.592 1.895,-1.776c0.404,-0.876 0.685,-1.456 0.842,-1.739c0.157,-0.284 0.373,-0.572 0.648,-0.864c0.275,-0.292 0.599,-0.526 0.973,-0.703c0.373,-0.177 0.793,-0.265 1.259,-0.265c1.156,-0 2.053,0.389 2.69,1.166c0.638,0.778 0.956,1.694 0.956,2.75c0,1.022 -0.202,1.917 -0.606,2.686l-1.188,-0.286c0.41,-0.904 0.615,-1.693 0.615,-2.366c0,-0.786 -0.203,-1.417 -0.61,-1.891c-0.407,-0.474 -0.967,-0.712 -1.68,-0.712c-0.528,0 -0.976,0.155 -1.344,0.464c-0.367,0.308 -0.742,0.878 -1.124,1.709c-0.393,0.853 -0.661,1.405 -0.804,1.655c-0.143,0.25 -0.341,0.498 -0.594,0.745c-0.252,0.247 -0.536,0.438 -0.85,0.573c-0.315,0.134 -0.657,0.202 -1.028,0.202c-0.982,-0 -1.749,-0.354 -2.299,-1.061c-0.55,-0.708 -0.825,-1.603 -0.825,-2.687c0,-0.791 0.121,-1.577 0.362,-2.358l1.179,0.312Z" style="fill:#55766c;fill-rule:nonzero;"/><path d="M1.347,30.51l0,3.664l10.763,-0l-0,1.372l-10.763,0l0,3.68l-1.12,0l0,-8.716l1.12,0Z" style="fill:#55766c;fill-rule:nonzero;"/><path d="M12.11,21.887l-0,5.398l-1.204,0l-0,-2.046l-9.474,-0l-0,2.046l-1.205,0l0,-5.398l1.205,-0l-0,1.971l9.474,-0l-0,-1.971l1.204,-0Z" style="fill:#55766c;fill-rule:nonzero;"/><path d="M12.11,10.594l-0,1.533l-9.381,4.261l9.381,-0l-0,1.381l-11.883,-0l0,-1.541l9.297,-4.278l-9.297,-0l0,-1.356l11.883,-0Z" style="fill:#55766c;fill-rule:nonzero;"/><path d="M11.268,0c0.713,0.971 1.069,2.046 1.069,3.225c0,1.544 -0.523,2.715 -1.57,3.512c-1.047,0.797 -2.579,1.196 -4.594,1.196c-1.948,-0 -3.464,-0.386 -4.548,-1.158c-1.083,-0.772 -1.625,-1.955 -1.625,-3.55c0,-0.572 0.073,-1.139 0.219,-1.701c0.146,-0.561 0.34,-1.013 0.581,-1.356l1.086,0.455c-0.449,0.792 -0.673,1.659 -0.673,2.602c-0,1.09 0.398,1.902 1.195,2.438c0.798,0.536 2.052,0.805 3.765,0.805c3.301,-0 4.952,-1.081 4.952,-3.243c-0,-0.814 -0.172,-1.428 -0.514,-1.844l-2.931,0l0,2.139l-1.196,0l0,-3.52l4.784,-0Z" style="fill:#55766c;fill-rule:nonzero;"/></svg>