{
  "accessors": [
    {
      "bufferView": 2,
      "componentType": 5126,
      "count": 5214,
      "max": [
        30.447525024414063,
        99.91410064697266,
        57.6086540222168
      ],
      "min": [
        -32.24135971069336,
        -0.1790706068277359,
        -57.648921966552734
      ],
      "type": "VEC3"
    },
    {
      "bufferView": 2,
      "byteOffset": 62568,
      "componentType": 5126,
      "count": 5214,
      "type": "VEC3"
    },
    {
      "bufferView": 3,
      "componentType": 5126,
      "count": 5214,
      "type": "VEC4"
    },
    {
      "bufferView": 1,
      "componentType": 5126,
      "count": 5214,
      "type": "VEC2"
    },
    {
      "bufferView": 1,
      "byteOffset": 41712,
      "componentType": 5126,
      "count": 5214,
      "type": "VEC2"
    },
    {
      "bufferView": 0,
      "componentType": 5125,
      "count": 19314,
      "type": "SCALAR"
    }
  ],
  "asset": {
    "generator": "fab-model-conversion",
    "version": "2.0"
  },
  "bufferViews": [
    {
      "buffer": 0,
      "byteLength": 77256,
      "target": 34963
    },
    {
      "buffer": 0,
      "byteLength": 83424,
      "byteOffset": 77256,
      "byteStride": 8,
      "target": 34962
    },
    {
      "buffer": 0,
      "byteLength": 125136,
      "byteOffset": 160680,
      "byteStride": 12,
      "target": 34962
    },
    {
      "buffer": 0,
      "byteLength": 83424,
      "byteOffset": 285816,
      "byteStride": 16,
      "target": 34962
    }
  ],
  "buffers": [
    {
      "byteLength": 369240,
      "uri": "Metal_Barricade_vgledec_Low.bin"
    }
  ],
  "images": [
    {
      "uri": "textures/Metal_Barricade_vgledec_Low_1K_albedo.jpeg"
    },
    {
      "uri": "textures/Metal_Barricade_vgledec_Low_1K_orm.png"
    },
    {
      "uri": "textures/Metal_Barricade_vgledec_Low_1K_normal.jpeg"
    }
  ],
  "materials": [
    {
      "doubleSided": true,
      "name": "Metal_Barricade_vgledec_Low",
      "normalTexture": {
        "index": 2
      },
      "occlusionTexture": {
        "index": 1
      },
      "pbrMetallicRoughness": {
        "baseColorTexture": {
          "index": 0
        },
        "metallicFactor": 0.0,
        "metallicRoughnessTexture": {
          "index": 1
        }
      }
    }
  ],
  "meshes": [
    {
      "name": "vgledec_LOD0_TIER3_000_MatID_1_0",
      "primitives": [
        {
          "attributes": {
            "NORMAL": 1,
            "POSITION": 0,
            "TANGENT": 2,
            "TEXCOORD_0": 3,
            "TEXCOORD_1": 4
          },
          "indices": 5,
          "material": 0,
          "mode": 4
        }
      ]
    }
  ],
  "nodes": [
    {
      "children": [
        1
      ],
      "matrix": [
        1.0,
        0.0,
        0.0,
        0.0,
        0.0,
        2.220446049250313e-16,
        -1.0,
        0.0,
        0.0,
        1.0,
        2.220446049250313e-16,
        0.0,
        0.0,
        0.0,
        0.0,
        1.0
      ],
      "name": "Sketchfab_model"
    },
    {
      "children": [
        2
      ],
      "matrix": [
        0.009999999776482582,
        0.0,
        0.0,
        0.0,
        0.0,
        0.0,
        0.009999999776482582,
        0.0,
        0.0,
        -0.009999999776482582,
        0.0,
        0.0,
        0.0,
        0.0,
        0.0,
        1.0
      ],
      "name": "Metal_Barricade_vgledec_Low.fbx"
    },
    {
      "children": [
        3
      ],
      "name": "RootNode"
    },
    {
      "children": [
        4
      ],
      "name": "world_root"
    },
    {
      "children": [
        5
      ],
      "name": "vgledec_LOD0_TIER3_000"
    },
    {
      "mesh": 0,
      "name": "vgledec_LOD0_TIER3_000_MatID_1_0"
    }
  ],
  "samplers": [
    {
      "magFilter": 9729,
      "minFilter": 9987,
      "wrapS": 10497,
      "wrapT": 10497
    }
  ],
  "scene": 0,
  "scenes": [
    {
      "name": "Sketchfab_Scene",
      "nodes": [
        0
      ]
    }
  ],
  "textures": [
    {
      "sampler": 0,
      "source": 0
    },
    {
      "sampler": 0,
      "source": 1
    },
    {
      "sampler": 0,
      "source": 2
    }
  ]
}
